<?xml version="1.0" encoding="UTF-8"?>
<!DOCTYPE svg PUBLIC "-//W3C//DTD SVG 1.1//EN" "http://www.w3.org/Graphics/SVG/1.1/DTD/svg11.dtd">
<!-- Creator: CorelDRAW 2020 (64-Bit) -->
<svg xmlns="http://www.w3.org/2000/svg" xml:space="preserve" width="50.911mm" height="35.234mm" version="1.1" style="shape-rendering:geometricPrecision; text-rendering:geometricPrecision; image-rendering:optimizeQuality; fill-rule:evenodd; clip-rule:evenodd"
viewBox="0 0 9129.33 2980.83"
 xmlns:xlink="http://www.w3.org/1999/xlink"
 xmlns:xodm="http://www.corel.com/coreldraw/odm/2003">
 <defs>
  <style type="text/css">
   <![CDATA[
    .fil0 {fill:#FEFEFE}
    .fil2 {fill:#1F262E}
    .fil1 {fill:#1F262E;fill-rule:nonzero}
   ]]>
  </style>
 </defs>
 <g id="Capa_x0020_1">
  <metadata id="CorelCorpID_0Corel-Layer"/>
  <path class="fil0" d="M4023.41 864.84l0 -271.6c0,-75.09 61.24,-136.34 136.34,-136.34l301.71 0c75.1,0 136.34,61.25 136.34,136.34l0 583.38 229.72 -630.09c19.97,-54.84 69.7,-89.63 128.09,-89.63l347.85 0c58.43,0 108.2,34.87 128.17,89.8l228.11 628.2 0 -581.65c0,-75.09 61.24,-136.34 136.34,-136.34l301.71 0c75.1,0 136.34,61.25 136.34,136.34l0 717.99 165.78 0c-14.42,-57.99 -21.3,-117.94 -21.3,-179.23 0,-126.35 29.31,-247.03 93.46,-356.15 61.89,-105.26 147.05,-188.77 253.88,-247.96 107.11,-59.36 223.76,-87.91 346.25,-87.91 122.77,0 240.02,28.27 347.3,88.1 106.46,59.36 191.1,142.95 252.39,248.33 63.46,109.08 92.37,229.63 92.37,355.59 0,126 -28.91,246.55 -92.37,355.67 -59.68,102.56 -141.62,184.58 -243.94,243.9 13.49,13.82 24.2,30.76 31.17,50.21l28.19 78.81 0 -32.86c0,-75.1 61.24,-136.34 136.34,-136.34l93.53 0c47.16,0 87.66,21.78 113.68,61.08l33.62 50.74c11.6,-63.46 67.4,-111.82 134.13,-111.82l93.53 0c16.84,0 32.94,3.06 47.84,8.7 14.29,-5.11 29.67,-7.89 45.66,-7.89l397.95 0c16.14,0 31.68,2.82 46.1,8.05 14.98,-5.72 31.25,-8.86 48.24,-8.86l315.05 0c75.1,0 136.34,61.24 136.34,136.34l0 76.3c0,39.02 -16.55,74.3 -42.96,99.18 11.67,20.09 18.36,43.41 18.36,68.21l0 76.3c0,26.78 -7.81,51.83 -21.22,72.93 28.06,25 45.82,61.4 45.82,101.83l0 76.3c0,75.09 -61.24,136.34 -136.34,136.34l-315.05 0c-54.12,0 -101.06,-31.81 -123.05,-77.71 -21.99,45.9 -68.93,77.71 -123.05,77.71l-93.58 0c-54.12,0 -101.07,-31.81 -123.05,-77.71 -21.99,45.9 -68.94,77.71 -123.06,77.71l-93.53 0c-47.19,0 -87.74,-21.83 -113.75,-61.17l-33.54 -50.74c-11.56,63.5 -67.36,111.9 -134.13,111.9l-93.53 0c-15.26,0 -29.96,-2.54 -43.65,-7.21 -14.05,4.75 -29.11,7.21 -44.93,7.21l-98.45 0c-58.92,0 -109.04,-35.47 -128.61,-91.05l-8.98 -25.48 -45.62 0 -8.98 25.48c-19.57,55.57 -69.69,91.05 -128.61,91.05l-97.65 0c-13.49,0 -26.41,-1.78 -38.61,-5.24 -12.16,3.46 -25.08,5.24 -38.49,5.24l-111.58 0c-40.35,0 -76.1,-16.11 -101.55,-45.06 -24.96,27.66 -61.08,45.06 -101.11,45.06l-93.53 0c-49.41,0 -92.82,-26.5 -116.73,-66.04 -18.04,13.57 -37.57,25.33 -58.55,35.15 -53.59,25.01 -111.17,36.64 -170.16,36.64 -58.99,0 -116.57,-11.63 -170.09,-36.84 -11.79,-5.55 -23.11,-11.72 -33.98,-18.48 -26.13,32.13 -62.93,49.57 -105.22,49.57l-98.45 0c-58.91,0 -109.04,-35.47 -128.61,-91.05l-8.98 -25.48 -45.66 0 -8.94 25.45c-19.53,55.57 -69.7,91.08 -128.61,91.08l-97.65 0c-42.84,0 -80.13,-17.92 -106.3,-50.94 -25.05,31.01 -63.38,50.94 -106.18,50.94l-93.54 0c-75.09,0 -136.34,-61.25 -136.34,-136.34l0 -16.23c-1.36,2.41 -2.82,4.83 -4.26,7.24 -29.4,48.57 -71.35,85.97 -121.56,112.19 -52.27,27.3 -109.85,38.89 -168.56,38.89 -54.47,0 -108.07,-9.66 -158.09,-31.56 -14.42,-6.32 -28.22,-13.53 -41.4,-21.67 -25.04,29.04 -62.09,47.48 -103.28,47.48l-315.08 0c-19.45,0 -37.98,-4.11 -54.76,-11.52 -17.07,7.54 -35.96,11.52 -55.97,11.52l-111.62 0c-40.35,0 -76.06,-16.11 -101.5,-45.02 -25.01,27.62 -61.09,45.02 -101.11,45.02l-93.58 0c-75.1,0 -136.34,-61.25 -136.34,-136.34l0 -570.25c0,-28.19 8.62,-54.44 23.4,-76.23 -13.77,-21.3 -21.78,-46.67 -21.78,-73.81l0 -1085.26c0,-75.09 61.24,-136.34 136.33,-136.34l301.72 0c75.09,0 136.34,61.25 136.34,136.34l-0.04 271.6 95.27 0zm-2533.03 -864.84c396.54,0 773.55,156.23 1053.88,436.57 280.33,280.29 436.53,657.35 436.53,1053.85 0,396.5 -156.2,773.56 -436.53,1053.85 -280.33,280.33 -657.34,436.57 -1053.88,436.57 -396.51,0 -773.56,-156.23 -1053.86,-436.57 -280.33,-280.29 -436.52,-657.35 -436.52,-1053.85 0,-396.5 156.19,-773.56 436.52,-1053.85 280.3,-280.33 657.35,-436.57 1053.86,-436.57z"/>
  <g id="_2358477516384">
   <path class="fil1" d="M7072.21 1409.1c76.98,0 137.76,-25.13 182.39,-75.41 44.64,-50.3 66.96,-117.5 66.96,-201.66 0,-86.18 -22.32,-154.18 -66.96,-203.96 -44.64,-49.76 -105.41,-74.63 -182.39,-74.63 -78.01,0 -139.08,24.87 -183.18,74.63 -44.14,49.79 -66.22,117.78 -66.22,203.96 0,85.19 22.07,152.65 66.22,202.44 44.1,49.75 105.17,74.63 183.18,74.63zm0 280.17c-101.61,0 -194.98,-23.85 -280.17,-71.58 -85.15,-47.7 -152.65,-113.91 -202.4,-198.57 -49.8,-84.66 -74.68,-180.37 -74.68,-287.1 0,-106.72 24.88,-202.4 74.68,-287.06 49.75,-84.69 117.25,-150.62 202.4,-197.82 85.19,-47.2 178.56,-70.79 280.17,-70.79 102.6,0 196.26,23.6 280.91,70.79 84.69,47.2 151.66,113.13 200.92,197.82 49.25,84.66 73.88,180.34 73.88,287.06 0,106.73 -24.63,202.44 -73.88,287.1 -49.26,84.66 -116.5,150.87 -201.66,198.57 -85.19,47.73 -178.56,71.58 -280.16,71.58zm-974.39 -241.68l337.11 0 0 230.91 -638.85 0 0 -1085.24 301.74 0 0 854.33zm-852.84 -177.03l-116.96 -350.97 -115.47 350.97 232.43 0zm75.46 230.91l-384.83 0 -58.5 177.03 -317.13 0 395.64 -1085.24 347.87 0 394.08 1085.24 -318.66 0 -58.47 -177.03zm-1535.72 897.29l-131.28 -228.1 -71.37 0 0 228.1 -93.54 0 0 -570.22 196.93 0c43.75,0 80.82,7.64 111.17,22.96 30.35,15.32 53.06,35.83 68.1,61.56 15.03,25.7 22.56,54.42 22.56,86.15 0,37.18 -10.8,70.95 -32.41,101.33 -21.61,30.35 -54.84,51.01 -99.69,61.95l141.13 236.27 -111.6 0zm-202.65 -302.74l103.39 0c35.01,0 61.38,-8.78 79.14,-26.27 17.81,-17.52 26.69,-41.01 26.69,-70.55 0,-29.53 -8.77,-52.66 -26.26,-69.34 -17.49,-16.67 -44.03,-25.02 -79.58,-25.02l-103.39 0 0 191.17zm518.54 -191.99l0 167.37 196.89 0 0 76.3 -196.89 0 0 174.75 221.52 0 0 76.31 -315.06 0 0 -571.03 315.06 0 0 76.3 -221.52 0zm524.3 500.48c-38.28,0 -72.76,-6.71 -103.39,-20.11 -30.63,-13.4 -54.69,-32.42 -72.18,-57.01 -17.52,-24.63 -26.27,-53.34 -26.27,-86.15l100.08 0c2.21,24.59 11.91,44.86 29.14,60.7 17.24,15.85 41.44,23.78 72.61,23.78 32.27,0 57.43,-7.78 75.49,-23.35 18.05,-15.6 27.05,-35.72 27.05,-60.31 0,-19.16 -5.58,-34.73 -16.82,-46.78 -11.19,-12.05 -25.16,-21.32 -41.83,-27.9 -16.71,-6.57 -39.8,-13.68 -69.34,-21.32 -37.17,-9.85 -67.43,-19.83 -90.67,-29.97 -23.24,-10.09 -43.08,-25.84 -59.46,-47.16 -16.42,-21.33 -24.64,-49.8 -24.64,-85.34 0,-32.8 8.21,-61.52 24.64,-86.15 16.38,-24.59 39.37,-43.47 68.92,-56.61 29.53,-13.11 63.72,-19.7 102.53,-19.7 55.27,0 100.51,13.83 135.8,41.45 35.3,27.61 54.84,65.5 58.68,113.62l-103.38 0c-1.64,-20.79 -11.48,-38.56 -29.54,-53.31 -18.05,-14.79 -41.86,-22.18 -71.39,-22.18 -26.8,0 -48.65,6.86 -65.61,20.55 -16.95,13.65 -25.45,33.33 -25.45,59.07 0,17.49 5.33,31.84 15.99,43.07 10.66,11.2 24.2,20.08 40.63,26.66 16.42,6.57 38.85,13.68 67.27,21.33 37.75,10.37 68.49,20.79 92.3,31.17 23.78,10.41 44.03,26.4 60.71,48.01 16.7,21.62 25.02,50.47 25.02,86.55 0,29 -7.78,56.33 -23.38,82.06 -15.57,25.69 -38.28,46.34 -68.1,61.94 -29.79,15.57 -64.93,23.38 -105.41,23.38zm676.05 -575.97l0 76.31 -151.79 0 0 493.91 -93.55 0 0 -493.91 -152.61 0 0 -76.31 397.95 0zm438.11 453.71l-238.77 0 -41.01 116.5 -97.63 0 204.29 -571.03 108.29 0 204.29 571.03 -98.44 0 -41.01 -116.5zm-26.27 -76.3l-92.69 -265 -93.54 265 186.23 0zm347.06 -377.41l0 363.48c0,43.18 11.34,75.73 34.04,97.63 22.72,21.86 54.27,32.8 94.75,32.8 41.05,0 72.89,-10.94 95.61,-32.8 22.67,-21.89 34.04,-54.45 34.04,-97.63l0 -363.48 93.51 0 0 361.8c0,46.52 -10.09,85.9 -30.35,118.18 -20.22,32.27 -47.3,56.33 -81.21,72.18 -33.91,15.85 -71.4,23.81 -112.42,23.81 -41.01,0 -78.33,-7.96 -111.99,-23.81 -33.62,-15.85 -60.31,-39.91 -80,-72.18 -19.7,-32.28 -29.53,-71.66 -29.53,-118.18l0 -361.8 93.54 0zm769.6 570.22l-131.28 -228.1 -71.37 0 0 228.1 -93.54 0 0 -570.22 196.93 0c43.75,0 80.82,7.64 111.17,22.96 30.35,15.32 53.06,35.83 68.1,61.56 15.03,25.7 22.57,54.42 22.57,86.15 0,37.18 -10.8,70.95 -32.41,101.33 -21.61,30.35 -54.84,51.01 -99.69,61.95l141.13 236.27 -111.6 0zm-202.65 -302.74l103.39 0c35.01,0 61.38,-8.78 79.14,-26.27 17.81,-17.52 26.69,-41.01 26.69,-70.55 0,-29.53 -8.77,-52.66 -26.26,-69.34 -17.49,-16.67 -44.03,-25.02 -79.58,-25.02l-103.39 0 0 191.17zm768.78 186.23l-238.77 0 -41.01 116.5 -97.63 0 204.29 -571.03 108.29 0 204.29 571.03 -98.44 0 -41.01 -116.5zm-26.27 -76.3l-92.69 -265 -93.54 265 186.23 0zm722.83 192.81l-93.54 0 -281.42 -425.81 0 425.81 -93.54 0 0 -571.03 93.54 0 281.42 424.99 0 -424.99 93.54 0 0 571.03zm491.45 -570.22l0 76.31 -151.79 0 0 493.91 -93.54 0 0 -493.91 -152.61 0 0 -76.31 397.95 0zm187.87 75.49l0 167.37 196.89 0 0 76.3 -196.89 0 0 174.75 221.52 0 0 76.31 -315.06 0 0 -571.03 315.06 0 0 76.3 -221.52 0zm-4979.66 -661.16l245.34 0 0.03 -241.68 -245.41 0 0.03 -407.94 -301.7 0 0 1085.24 301.75 0 -0.04 -435.63zm367.92 -241.68l0 241.68 0.03 91.91 -0.03 343.72 301.7 0 0 -1085.24 -301.7 0 0 293.93 0 114.01z"/>
   <path class="fil2" d="M1527.07 1554.35l-146.57 0 0 260.26 -180.27 0 0 -648.36 180.27 0 0 243.7 146.57 0 0 144.41zm253.47 -388.11l0 648.36 -180.26 0 0 -205.35 0 -54.91 0 -144.41 0 -68.1 0 -175.61 180.26 0zm-284.43 -407.12c122.79,0 238.47,29.47 340.15,81.5 -66.53,-22.03 -137.61,-34.01 -211.54,-34.01 -369.44,0 -668.91,298.15 -668.91,665.96 0,367.81 299.47,665.96 668.91,665.96 73.92,0 145.01,-11.97 211.54,-34.01 -101.68,52 -217.36,81.5 -340.15,81.5 -404.53,0 -732.47,-319.41 -732.47,-713.45 0,-394.04 327.94,-713.45 732.47,-713.45zm149.84 1285.8c-94.72,0 -184,-23.64 -262.4,-65.36 51.29,17.66 106.12,27.3 163.17,27.3 285,0 515.98,-239.23 515.98,-534.29 0,-295.1 -230.98,-534.32 -515.98,-534.32 -57.05,0 -111.88,9.64 -163.17,27.3 78.4,-41.69 167.68,-65.36 262.4,-65.36 312.05,0 564.99,256.25 564.99,572.38 0,316.1 -252.94,572.35 -564.99,572.35zm-155.56 -1792.07c683.49,0 1237.57,554.08 1237.57,1237.57 0,683.48 -554.08,1237.57 -1237.57,1237.57 -683.48,0 -1237.56,-554.08 -1237.56,-1237.57 0,-683.48 554.08,-1237.57 1237.56,-1237.57zm-0.96 437.9c431.08,0 780.54,349.5 780.54,780.58 0,431.08 -349.47,780.54 -780.54,780.54 -431.08,0 -780.59,-349.47 -780.59,-780.54 0,-431.08 349.51,-780.58 780.59,-780.58zm-1044.76 560.16l159.4 29.92 -4.87 26.16 -69.73 -13.11 -14.08 75.02 69.7 13.11 -4.91 26.12 -159.4 -29.89 4.87 -26.16 68.34 12.79 14.08 -74.99 -68.31 -12.83 4.9 -26.15zm180.09 -136.41l-23.85 63.62 26.94 22.57 -9.74 26.01 -131.78 -111.42 10.84 -28.82 172.52 2.49 -9.81 26.23 -35.11 -0.68zm-22.96 -0.6l-79.9 -1.74 61.31 51.35 18.59 -49.61zm93.22 -106.83l29.68 -46.1 18.05 11.58 -44.07 68.53 -136.4 -87.75 14.39 -22.39 118.35 76.13zm127.45 -132.47c-10.56,10.77 -22.82,18.24 -36.75,22.36 -13.93,4.12 -28,4.37 -42.26,0.74 -14.18,-3.59 -26.97,-10.91 -38.38,-22 -11.3,-11.09 -18.87,-23.71 -22.71,-37.82 -3.84,-14.11 -3.87,-28.15 -0.08,-42.16 3.81,-14 10.98,-26.4 21.54,-37.21 10.66,-10.88 22.99,-18.41 36.89,-22.5 13.93,-4.13 27.97,-4.37 42.08,-0.82 14.15,3.59 26.87,10.95 38.21,22.04 11.37,11.13 19.01,23.71 22.92,37.77 3.98,14.15 4.05,28.19 0.25,42.19 -3.81,14.04 -11.09,26.51 -21.72,37.39zm-16.52 -16.13c7.53,-7.71 12.44,-16.24 14.81,-25.69 2.39,-9.42 2,-19.02 -1.2,-28.82 -3.16,-9.7 -9.07,-18.8 -17.63,-27.19 -8.57,-8.35 -17.77,-14.04 -27.51,-16.95 -9.77,-2.88 -19.3,-3.05 -28.65,-0.39 -9.35,2.63 -17.73,7.75 -25.27,15.46 -7.46,7.65 -12.44,16.18 -14.86,25.56 -2.45,9.38 -2.09,18.91 1.03,28.65 3.13,9.7 8.96,18.73 17.55,27.08 8.57,8.43 17.74,14.08 27.55,17.06 9.88,2.98 19.48,3.2 28.82,0.6 9.38,-2.6 17.84,-7.72 25.35,-15.36zm264.06 -175.18l-65.01 -37.1 -17.52 10.27 32.84 55.97 -22.96 13.47 -82.06 -139.92 48.33 -28.32c10.74,-6.33 20.94,-9.77 30.57,-10.38 9.64,-0.6 18.2,1.14 25.59,5.3 7.36,4.16 13.36,10.09 17.91,17.88 5.37,9.14 7.61,18.98 6.65,29.58 -0.92,10.55 -6.12,20.36 -15.57,29.49l68.66 37.72 -27.44 16.06zm-93.3 -45.17l25.41 -14.86c8.56,-5.05 13.82,-10.98 15.63,-17.84 1.85,-6.86 0.64,-13.89 -3.62,-21.18 -4.26,-7.21 -9.7,-11.62 -16.42,-13.18 -6.72,-1.6 -14.39,0.18 -23.1,5.3l-25.41 14.89 27.5 46.88zm154.57 -134.49l16.53 44.61 52.53 -19.44 7.54 20.36 -52.49 19.44 17.27 46.63 59.07 -21.89 7.54 20.33 -84.02 31.17 -56.47 -152.37 84.08 -31.1 7.54 20.37 -59.11 21.89zm222.49 88.82c-10.74,1.57 -20.76,1.07 -29.89,-1.46 -9.2,-2.5 -16.74,-6.86 -22.68,-13.08 -5.93,-6.18 -9.59,-13.9 -10.91,-23.14l28.15 -4.13c1.63,6.83 5.19,12.16 10.74,15.89 5.47,3.77 12.61,5.02 21.35,3.73 9.1,-1.31 15.89,-4.59 20.33,-9.66 4.44,-5.15 6.15,-11.2 5.15,-18.1 -0.81,-5.4 -2.98,-9.56 -6.68,-12.5 -3.63,-2.92 -7.96,-4.94 -12.9,-6.12 -5.02,-1.13 -11.73,-2.2 -20.36,-3.16 -10.91,-1.24 -19.84,-2.81 -26.8,-4.73 -6.93,-1.88 -13.19,-5.51 -18.62,-10.8 -5.51,-5.36 -8.99,-13.04 -10.45,-23.03 -1.35,-9.24 -0.22,-17.66 3.41,-25.24 3.59,-7.64 9.27,-13.89 17.06,-18.8 7.75,-4.91 17.13,-8.14 28.05,-9.74 15.57,-2.24 28.89,-0.21 39.95,6.12 11.05,6.32 18.12,16.17 21.14,29.57l-29.1 4.23c-1.28,-5.8 -4.8,-10.38 -10.48,-13.79 -5.65,-3.45 -12.69,-4.52 -21.01,-3.31 -7.54,1.1 -13.43,3.91 -17.66,8.46 -4.16,4.55 -5.76,10.41 -4.7,17.7 0.71,4.86 2.81,8.71 6.26,11.45 3.44,2.7 7.64,4.62 12.55,5.86 4.86,1.13 11.44,2.23 19.8,3.2 11.05,1.39 20.11,3.05 27.26,5.01 7.14,1.95 13.5,5.65 19.04,11.02 5.58,5.4 9.14,13.15 10.59,23.31 1.21,8.18 0.11,16.24 -3.2,24.06 -3.34,7.93 -8.88,14.64 -16.67,20.26 -7.72,5.62 -17.31,9.24 -28.71,10.91zm222.84 -173.51l-0.11 21.71 -43.18 -0.28 -0.89 140.52 -26.58 -0.18 0.85 -140.49 -43.4 -0.25 0.11 -21.72 113.2 0.68zm158.9 159.22l-66.17 -15.28 -18.87 29.67 -27.01 -6.25 93.19 -145.22 29.99 6.93 20.08 171.38 -27.29 -6.33 -3.92 -34.9zm-2.41 -22.82l-8.71 -79.4 -42.9 67.45 51.61 11.95zm182.29 -50.61l-46.03 92.58c-5.47,10.98 -6.72,20.72 -3.69,29.14 2.98,8.46 9.63,15.25 19.93,20.36 10.45,5.23 19.97,6.51 28.54,3.77 8.49,-2.71 15.53,-9.56 21,-20.58l46.07 -92.51 23.85 11.84 -45.89 92.16c-5.86,11.84 -13.43,20.57 -22.67,26.23 -9.24,5.65 -19.19,8.32 -29.86,8.07 -10.63,-0.21 -21.18,-2.95 -31.67,-8.14 -10.41,-5.22 -18.91,-11.94 -25.48,-20.3 -6.54,-8.28 -10.3,-17.77 -11.19,-28.5 -0.92,-10.69 1.52,-22 7.43,-33.8l45.85 -92.16 23.82 11.84zm142.59 270.89l5.62 -74.68 -16.81 -11.4 -36.46 53.66 -22.04 -14.96 91.16 -134.13 46.39 31.49c10.27,6.97 17.77,14.71 22.46,23.17 4.69,8.43 6.75,16.92 6.18,25.35 -0.57,8.49 -3.38,16.41 -8.43,23.88 -5.97,8.74 -13.93,15 -23.88,18.65 -9.92,3.7 -21.04,3.24 -33.3,-1.35l-4.62 78.15 -26.27 -17.84zm0.74 -103.64l24.35 16.52c8.21,5.58 15.81,7.78 22.78,6.51 7.04,-1.32 12.83,-5.41 17.59,-12.37 4.73,-6.93 6.36,-13.79 4.87,-20.51 -1.39,-6.72 -6.33,-12.94 -14.68,-18.59l-24.35 -16.56 -30.57 45zm158.97 216.4l-46.34 -49.64 -32.23 14.07 -18.91 -20.33 158.41 -68.34 21.04 22.53 -79.12 153.32 -19.09 -20.47 16.24 -31.13zm10.77 -20.29l37.14 -70.69 -73.28 31.99 36.14 38.7zm88.96 234.53l-13.47 -22.93 63.98 -130.33 -104.46 61.28 -13.47 -22.96 140.14 -82.17 13.47 22.93 -63.83 130.26 104.31 -61.21 13.47 22.96 -140.14 82.17zm210.48 103.75l-20.37 7.53 -14.99 -40.52 -131.75 48.87 -9.25 -24.96 131.75 -48.87 -15.07 -40.69 20.33 -7.54 39.35 106.17zm0.42 119.3l-47.09 6.86 8.1 55.41 -21.51 3.16 -8.1 -55.44 -49.15 7.14 9.03 62.38 -21.46 3.13 -12.9 -88.71 160.75 -23.38 12.9 88.67 -21.47 3.13 -9.09 -62.34zm-1989.57 377.84l9.92 34.55 -5.73 1.63 -0.74 -2.66c-0.71,-2.45 -1.21,-3.95 -1.6,-4.52 -0.53,-0.85 -1.18,-1.42 -1.92,-1.7 -0.74,-0.32 -1.53,-0.36 -2.31,-0.11 -1.21,0.36 -2.88,1.31 -4.94,2.91l-58.32 43.82 72.79 6.62c2.55,0.21 4.48,0.21 5.69,-0.14 1.28,-0.36 2.1,-1.1 2.45,-2.17 0.32,-1.11 0.11,-3.03 -0.71,-5.83l-0.89 -3.16 5.69 -1.6 8.38 29.36 -5.64 1.63c-0.68,-2.56 -1.5,-4.34 -2.32,-5.36 -0.81,-1.07 -1.84,-1.89 -2.94,-2.39 -1.5,-0.6 -3.87,-1.07 -7.15,-1.39l-89.17 -9.27 -2.77 -9.64 70.87 -54.73c2.39,-1.78 3.76,-2.99 4.34,-3.55 0.74,-0.93 1.31,-1.85 1.67,-2.81 0.39,-0.92 0.57,-2.03 0.57,-3.2 0,-1.18 -0.31,-2.74 -0.89,-4.66l5.69 -1.63zm35.22 116.72l29.18 74.63 -20.72 18.05 -4.41 -4.97c3.33,-2.99 5.83,-5.8 7.43,-8.38 1.6,-2.6 2.66,-5.41 3.3,-8.43 0.68,-3.02 0.79,-5.83 0.36,-8.46 -0.42,-2.63 -1.92,-7.17 -4.41,-13.57l-8.74 -22.28 -33.65 13.15 4.33 11.05c1.6,4.09 3.49,6.94 5.72,8.46 2.17,1.57 4.48,2.35 6.86,2.28 1.78,0.03 4.59,-0.68 8.39,-2.2l1.57 -0.61 2.52 6.51 -40.3 15.74 -2.52 -6.51 3.48 -1.35c3.06,-1.21 5.23,-2.28 6.4,-3.31 1.17,-0.96 2.13,-2.31 2.88,-4.02 0.68,-1.74 0.99,-3.34 0.85,-4.97 -0.11,-1.57 -0.82,-4.12 -2.17,-7.54l-4.37 -11.08 -29.71 11.62c-3.1,1.24 -4.91,2.06 -5.52,2.62 -0.53,0.58 -0.85,1.21 -0.89,2 -0.07,0.81 0.53,2.66 1.68,5.61l5.4 13.79c2.99,7.68 6.29,13.37 9.81,16.99 3.52,3.6 7.78,6.29 12.9,8.14 3.94,1.43 9.14,2.32 15.42,2.56l0.21 6.78 -32.73 1 -30.28 -77.44 5.51 -2.17 1.03 2.63c1.21,3.09 2.13,4.86 2.81,5.43 1.07,0.89 2.31,1.5 3.8,1.53 1,0.11 3.02,-0.39 5.94,-1.53l63.19 -24.69c2.88,-1.11 4.66,-2.17 5.44,-3.13 0.74,-0.92 1.13,-2.2 1.1,-3.76 0.03,-0.89 -0.85,-3.55 -2.59,-8l5.51 -2.17zm42.39 103.28l15.11 26.01 -41.34 75.99 48.65 -28.26c2.92,-1.67 4.84,-3.16 5.76,-4.48 0.92,-1.28 1.39,-2.7 1.42,-4.2 -0.03,-1.52 -0.68,-3.38 -1.95,-5.61l-1.28 -2.17 5.12 -2.99 16.49 28.37 -5.15 2.99 -0.85 -1.53c-1.46,-2.49 -2.63,-4.09 -3.55,-4.73 -1.32,-0.92 -2.92,-1.24 -4.8,-0.99 -1.89,0.25 -4.2,1.17 -6.94,2.73l-69.94 40.59 -4.26 -7.39 49.61 -91.3 -60.88 35.29c-3.38,1.95 -5.36,3.27 -5.97,3.87 -0.74,0.82 -1.31,1.84 -1.63,3.05 -0.36,1.18 -0.36,2.35 -0.03,3.55 0.28,1.18 1.31,3.31 3.05,6.44l-5.12 2.94 -16.74 -28.78 5.12 -2.95 0.93 1.53c1.7,2.94 3.16,4.72 4.3,5.47 1.18,0.67 2.63,0.96 4.34,0.67 1.7,-0.21 4.19,-1.28 7.46,-3.2l54.05 -31.34c3.42,-1.95 5.41,-3.23 6.05,-3.84 1.2,-1.17 1.81,-2.41 1.84,-3.83 0,-1.42 -0.92,-3.63 -2.7,-6.72l-1.28 -2.24 5.11 -2.95zm62.13 103.99l21.61 30.74 -4.83 3.45 -1.68 -2.42c-1.57,-2.2 -2.99,-3.59 -4.3,-4.15 -1.32,-0.58 -2.74,-0.68 -4.16,-0.32 -1.46,0.32 -3.83,1.63 -7.14,3.94l-51.93 36.5c-2.63,1.85 -4.33,3.42 -5.08,4.7 -0.75,1.28 -1.03,2.52 -0.93,3.76 0.14,1.24 1,3.1 2.63,5.41l1.71 2.38 -4.87 3.38 -21.61 -30.74 4.83 -3.42 1.79 2.53c1.6,2.27 3.02,3.73 4.22,4.3 1.14,0.57 2.39,0.74 3.63,0.46 1.31,-0.28 3.38,-1.42 6.18,-3.41l53.03 -37.21c3.02,-2.17 4.91,-3.81 5.65,-4.91 0.74,-1.18 0.99,-2.38 0.85,-3.7 -0.18,-1.28 -1.07,-3.05 -2.66,-5.33l-1.79 -2.56 4.84 -3.38zm-52.78 138.9l1.35 -5.83c12.16,2.88 20.3,2.7 24.48,-0.53 0.47,-0.39 1.07,-0.89 1.71,-1.5 -0.74,-0.46 -1.46,-0.92 -2.06,-1.38 -0.6,-0.5 -1.1,-1 -1.49,-1.53 -1.42,-1.78 -1.92,-3.7 -1.6,-5.69 0.36,-1.99 1.39,-3.66 3.16,-5.02 1.78,-1.35 3.8,-1.91 6.11,-1.56 2.31,0.28 4.2,1.38 5.58,3.2 1.95,2.55 2.63,5.54 1.95,8.88 -0.64,3.41 -2.6,6.33 -5.8,8.78 -2.1,1.6 -4.62,2.88 -7.57,3.76 -2.98,0.92 -6.04,1.31 -9.27,1.18 -3.23,-0.14 -8.78,-1.07 -16.56,-2.77zm171.1 6.75l8.1 8.56 -38.88 78.76c-2.03,3.91 -2.95,6.93 -2.84,8.92 0.1,2.03 1.03,4.05 2.77,5.91l1.07 1.1 -4.3 4.09 -24.06 -25.48 4.3 -4.05c0.85,0.78 1.64,1.49 2.42,2.31 1.57,1.63 2.74,2.6 3.55,2.74 1.6,0.42 2.88,0.14 3.84,-0.79 0.74,-0.68 2.06,-2.84 3.94,-6.43l9.28 -17.95 -24.42 -25.8 -20.76 9.03c-2.13,0.96 -3.55,1.71 -4.12,2.28 -0.71,0.68 -1.1,1.42 -1.32,2.24 -0.14,0.85 -0.07,1.71 0.25,2.55 0.32,0.85 1.17,2 2.45,3.38 0.85,0.9 1.57,1.68 2.06,2.28l-4.3 4.09 -20.22 -21.4 4.3 -4.09c1.89,2 3.44,3.24 4.62,3.73 1.21,0.47 2.6,0.68 4.05,0.47 1.49,-0.14 4.16,-1.03 7.96,-2.63l80.25 -33.8zm-48.48 28.93l20.9 22.11 20.4 -40.16 -41.29 18.05zm100.05 20.61l23.35 18.98 -11.62 85.68 35.43 -43.65c2.1,-2.59 3.38,-4.69 3.81,-6.25 0.42,-1.53 0.36,-3.02 -0.14,-4.41 -0.6,-1.46 -1.84,-2.95 -3.84,-4.59l-1.95 -1.6 3.7 -4.59 25.48 20.68 -3.73 4.59 -1.35 -1.1c-2.23,-1.78 -3.91,-2.88 -4.97,-3.13 -1.57,-0.42 -3.2,-0.18 -4.86,0.74 -1.68,0.89 -3.49,2.56 -5.51,5.05l-50.93 62.73 -6.68 -5.37 14 -102.99 -44.39 54.63c-2.45,3.02 -3.84,4.94 -4.16,5.72 -0.46,1.03 -0.63,2.21 -0.49,3.45 0.1,1.24 0.49,2.34 1.2,3.33 0.72,0.96 2.45,2.63 5.16,4.94l-3.7 4.59 -25.84 -21 3.7 -4.59 1.38 1.1c2.63,2.17 4.62,3.34 5.97,3.59 1.39,0.25 2.77,-0.03 4.3,-0.85 1.53,-0.85 3.49,-2.7 5.83,-5.65l39.42 -48.51c2.49,-3.05 3.91,-4.97 4.31,-5.72 0.67,-1.5 0.78,-2.92 0.31,-4.26 -0.49,-1.32 -2.13,-3.06 -4.9,-5.34l-2 -1.6 3.74 -4.62zm93.37 72.18l31.77 20.15 -3.12 4.98 -2.45 -1.53c-2.28,-1.46 -4.16,-2.17 -5.62,-2.21 -1.39,0 -2.74,0.43 -3.94,1.32 -1.24,0.85 -2.92,2.99 -5.08,6.36l-33.94 53.66c-1.68,2.66 -2.63,4.84 -2.84,6.26 -0.21,1.49 0,2.77 0.6,3.87 0.61,1.1 2.1,2.44 4.48,3.94l2.49 1.57 -3.16 4.97 -31.81 -20.08 3.16 -5.01 2.63 1.67c2.34,1.5 4.19,2.28 5.54,2.32 1.28,0.1 2.49,-0.25 3.55,-0.96 1.07,-0.74 2.56,-2.6 4.37,-5.51l34.65 -54.77c1.95,-3.09 3.09,-5.33 3.3,-6.68 0.25,-1.35 0.04,-2.59 -0.6,-3.73 -0.64,-1.1 -2.17,-2.41 -4.51,-3.87l-2.63 -1.67 3.16 -5.05zm53.31 35.83l27.65 14.04 -9.27 82.78 60.6 -56.76 26.51 13.47 -2.71 5.3 -2.23 -1.18c-2.71,-1.35 -4.62,-2.02 -5.8,-2.02 -1.21,0 -2.28,0.39 -3.45,1.31 -1.1,0.89 -2.38,2.63 -3.73,5.33l-29.39 57.9c-1.84,3.62 -2.81,6.14 -2.99,7.46 -0.07,1.31 0.21,2.52 0.96,3.55 0.71,1.13 2.44,2.38 5.19,3.76l2.24 1.14 -2.71 5.3 -33.27 -16.95 2.66 -5.23 2.42 1.21c2.13,1.07 3.8,1.71 4.97,1.84 1.14,0.18 2.24,0.04 3.27,-0.42 1.07,-0.47 1.81,-1.07 2.34,-1.89 1.07,-1.6 1.88,-2.88 2.34,-3.83l32.84 -64.65 -68.45 64.04 -6.33 -3.2 10.34 -92.16 -31.56 62.23c-1.6,3.16 -2.45,5.47 -2.49,6.86 0,1.39 0.39,2.66 1.24,3.83 0.89,1.24 2.77,2.6 5.75,4.13l2.03 1.03 -2.66 5.3 -30.96 -15.75 2.7 -5.25 1.71 0.89c3.02,1.52 5.33,2.28 6.93,2.31 1.6,0 2.99,-0.43 4.09,-1.28 1.13,-0.93 2.55,-3.06 4.3,-6.44l29.18 -57.5c1.6,-3.16 2.45,-5.36 2.53,-6.61 0,-1.29 -0.36,-2.42 -1.18,-3.45 -0.78,-1.03 -2.6,-2.28 -5.33,-3.66l-3.02 -1.52 2.7 -5.26zm161.96 74.63l11.19 3.81 2.49 87.82c0.04,4.37 0.64,7.46 1.68,9.2 1.03,1.71 2.77,3.06 5.19,3.87l1.5 0.5 -1.92 5.62 -33.16 -11.23 1.92 -5.61c1.1,0.25 2.13,0.57 3.16,0.89 2.17,0.74 3.66,0.99 4.44,0.78 1.6,-0.42 2.6,-1.24 3.05,-2.52 0.32,-0.93 0.43,-3.45 0.43,-7.5l-0.18 -20.19 -33.66 -11.4 -14.1 17.73c-1.42,1.81 -2.31,3.16 -2.6,3.94 -0.32,0.92 -0.32,1.74 -0.07,2.56 0.25,0.85 0.71,1.57 1.35,2.17 0.74,0.6 1.99,1.21 3.81,1.81 1.13,0.39 2.13,0.79 2.88,1.1l-1.89 5.58 -27.89 -9.45 1.88 -5.62c2.6,0.89 4.55,1.24 5.86,1.1 1.29,-0.14 2.56,-0.57 3.81,-1.46 1.21,-0.82 3.13,-2.84 5.8,-6.04l55.05 -67.46zm-29.29 48.23l28.82 9.77 -0.78 -44.99 -28.05 35.22zm103.21 -27.05l4.83 1.1 -0.07 3.38 58.75 13.37 1.28 -3.13 5.08 1.14 3.7 30.52 -6.72 0.82c-1.24,-8.17 -3.59,-14.26 -7,-18.27 -3.38,-3.95 -8.27,-6.68 -14.64,-8.15 -2.71,-0.6 -4.26,-0.85 -4.8,-0.81 -0.58,0.1 -1,0.39 -1.35,0.89 -0.32,0.42 -0.74,1.99 -1.39,4.73l-15.18 66.56c-0.71,3.2 -1.03,5.36 -0.92,6.54 0.07,1.21 0.39,2.17 0.89,2.88 0.5,0.79 1.28,1.39 2.39,1.89 0.99,0.57 3.51,1.24 7.35,2.2l-1.31 5.76 -36.78 -8.35 1.31 -5.8c4.09,0.85 6.61,1.31 7.61,1.28 1.71,-0.07 3.02,-0.68 4.02,-1.84 0.96,-1.1 1.84,-3.41 2.66,-6.86l15.5 -68.06c0.46,-2.1 0.63,-3.41 0.57,-3.91 -0.11,-0.5 -0.43,-0.96 -0.92,-1.31 -0.54,-0.43 -1.68,-0.79 -3.49,-1.18 -5.02,-1.18 -9.14,-1.46 -12.44,-0.85 -3.27,0.64 -6.61,2.17 -9.95,4.62 -3.38,2.49 -6.54,5.94 -9.53,10.41l-5.69 -3.62 16.24 -25.95zm99.05 24.31l79.43 10.7 5.73 26.87 -6.47 1.49c-0.99,-4.37 -2.23,-7.93 -3.76,-10.59 -1.46,-2.66 -3.38,-4.97 -5.72,-7 -2.32,-2.03 -4.73,-3.45 -7.25,-4.37 -2.53,-0.92 -7.22,-1.84 -13.97,-2.77l-23.78 -3.2 -4.83 35.83 11.79 1.6c4.34,0.57 7.75,0.29 10.14,-0.89 2.45,-1.18 4.23,-2.77 5.36,-4.91 0.89,-1.52 1.6,-4.37 2.13,-8.38l0.21 -1.63 6.89 0.92 -5.79 42.86 -6.89 -0.92 0.53 -3.73c0.39,-3.27 0.53,-5.65 0.21,-7.15 -0.29,-1.56 -1.03,-3.02 -2.13,-4.48 -1.18,-1.49 -2.45,-2.52 -3.95,-3.2 -1.42,-0.68 -3.98,-1.28 -7.64,-1.74l-11.76 -1.6 -4.31 31.63c-0.42,3.31 -0.57,5.3 -0.39,6.07 0.25,0.75 0.68,1.35 1.32,1.78 0.67,0.4 2.59,0.82 5.69,1.24l14.71 1.95c8.17,1.14 14.71,1 19.62,-0.31 4.86,-1.32 9.31,-3.77 13.36,-7.36 3.16,-2.7 6.47,-6.83 9.75,-12.19l6.07 3.1 -15.03 29.1 -82.42 -11.13 0.78 -5.86 2.77 0.36c3.27,0.47 5.3,0.5 6.15,0.18 1.28,-0.42 2.38,-1.28 3.2,-2.55 0.57,-0.82 1.1,-2.81 1.52,-5.91l9.07 -67.24c0.42,-3.09 0.36,-5.15 -0.11,-6.29 -0.42,-1.1 -1.39,-2.06 -2.77,-2.77 -0.74,-0.47 -3.52,-1 -8.24,-1.63l0.78 -5.87zm211.61 11.91l11.76 -0.89 36.65 79.79c1.78,4.02 3.52,6.65 5.12,7.82 1.63,1.21 3.8,1.74 6.32,1.57l1.57 -0.14 0.43 5.94 -34.91 2.63 -0.46 -5.91c1.13,-0.18 2.2,-0.32 3.3,-0.42 2.28,-0.14 3.73,-0.47 4.41,-1.03 1.28,-1 1.89,-2.17 1.78,-3.52 -0.07,-1 -0.92,-3.34 -2.52,-7.07l-8.07 -18.52 -35.46 2.71 -6.04 21.82c-0.58,2.28 -0.89,3.84 -0.82,4.65 0.11,0.96 0.39,1.74 0.92,2.42 0.57,0.64 1.28,1.14 2.13,1.42 0.89,0.29 2.28,0.32 4.13,0.18 1.24,-0.07 2.31,-0.1 3.12,-0.1l0.43 5.86 -29.36 2.23 -0.47 -5.9c2.74,-0.18 4.7,-0.64 5.83,-1.28 1.13,-0.61 2.17,-1.57 2.92,-2.81 0.81,-1.24 1.81,-3.84 2.98,-7.82l24.31 -83.63zm-8.1 55.83l30.31 -2.31 -18.3 -41.08 -12.01 43.39zm223.13 -90.3l4.97 -1.14 16.13 30.03 -5.97 3.23c-5.15,-6.54 -8.88,-10.91 -11.26,-13 -3.87,-3.41 -8.28,-5.76 -13.22,-7.15 -4.94,-1.35 -10.06,-1.42 -15.36,-0.18 -6.22,1.39 -11.55,4.37 -15.99,8.93 -4.44,4.51 -7.57,10.3 -9.31,17.45 -1.78,7.21 -1.74,14.75 0.11,22.77 1.92,8.21 5.22,15.18 9.98,20.86 4.8,5.73 10.38,9.64 16.78,11.84 6.43,2.21 12.83,2.53 19.3,1 6.12,-1.39 11.98,-4.55 17.55,-9.53 5.58,-4.94 9.99,-11.13 13.22,-18.44l6.4 2.49c-1.84,4.91 -4.12,9.17 -6.75,12.9 -4.12,5.86 -8.77,10.66 -13.89,14.18 -5.12,3.52 -11.09,6.07 -17.81,7.67 -14.92,3.42 -28.32,0.68 -40.19,-8.21 -9.78,-7.39 -16.18,-17.38 -19.09,-30.03 -2.13,-9.27 -1.92,-18.2 0.57,-26.66 2.52,-8.56 7.11,-15.88 13.54,-22.06 6.47,-6.15 14.08,-10.24 22.75,-12.23 4.62,-1.07 9.06,-1.46 13.32,-1.07 4.31,0.36 8.78,1.46 13.51,3.31l0.71 -6.96zm84.05 -31.18c8.39,-3.3 16.71,-4.22 25.06,-2.84 8.99,1.46 16.84,4.87 23.46,10.27 6.61,5.41 11.73,12.62 15.28,21.72 5.51,14.08 5.62,27.3 0.29,39.63 -5.26,12.3 -14.75,21.12 -28.33,26.41 -15.21,5.93 -29.28,5.25 -42.33,-1.95 -10.63,-5.83 -18.3,-14.86 -23.1,-26.98 -3.48,-8.99 -4.59,-17.88 -3.3,-26.66 1.28,-8.71 4.86,-16.63 10.69,-23.74 5.91,-7.07 13.37,-12.37 22.28,-15.85zm2.74 7.15c-6.86,2.66 -12.12,6.54 -15.85,11.58 -3.7,5.08 -5.86,11.2 -6.47,18.45 -0.57,7.22 0.85,15.31 4.34,24.2 3.34,8.53 7.64,15.17 12.87,19.97 5.26,4.75 10.98,7.74 17.13,8.98 6.11,1.21 12.29,0.64 18.44,-1.78 6.12,-2.38 10.95,-6.07 14.43,-10.98 3.51,-4.9 5.51,-11.26 6.01,-19.09 0.46,-7.82 -0.82,-15.81 -3.98,-23.88 -3.23,-8.24 -7.72,-15.14 -13.43,-20.75 -4.94,-4.83 -10.16,-7.78 -15.6,-8.93 -5.44,-1.07 -11.41,-0.31 -17.88,2.21zm65.4 -32.2l27 -15.29 63.83 53.56 -13.76 -81.85 25.91 -14.68 2.91 5.16 -2.23 1.24c-2.63,1.49 -4.26,2.7 -4.91,3.69 -0.68,1 -0.92,2.14 -0.82,3.6 0.11,1.42 0.93,3.48 2.39,6.07l31.99 56.51c2.02,3.59 3.55,5.75 4.59,6.61 0.99,0.82 2.2,1.21 3.48,1.18 1.32,0.03 3.27,-0.71 5.97,-2.24l2.21 -1.24 2.91 5.15 -32.49 18.38 -2.91 -5.15 2.31 -1.32c2.1,-1.17 3.52,-2.2 4.34,-3.09 0.78,-0.85 1.24,-1.84 1.42,-2.99 0.21,-1.1 0.14,-2.1 -0.25,-2.99 -0.74,-1.78 -1.35,-3.16 -1.92,-4.12l-35.68 -63.09 15.49 92.48 -6.15 3.49 -71.04 -59.6 34.36 60.7c1.74,3.1 3.2,5.05 4.33,5.86 1.18,0.74 2.45,1.14 3.92,1.07 1.49,0 3.65,-0.85 6.61,-2.49l1.99 -1.1 2.92 5.15 -30.24 17.06 -2.92 -5.16 1.71 -0.96c2.95,-1.63 4.83,-3.16 5.72,-4.48 0.92,-1.32 1.32,-2.66 1.21,-4.13 -0.11,-1.42 -1.07,-3.8 -2.99,-7.11l-31.73 -56.12c-1.74,-3.1 -3.13,-5.02 -4.13,-5.76 -1.02,-0.74 -2.2,-1.03 -3.52,-0.96 -1.28,0.14 -3.3,0.92 -6.01,2.41l-2.91 1.68 -2.91 -5.15zm125.67 -74.25l65.22 -46.49 22.53 15.63 -3.69 5.55c-3.74,-2.52 -7.04,-4.26 -9.96,-5.15 -2.91,-0.93 -5.9,-1.32 -8.99,-1.21 -3.05,0.1 -5.83,0.71 -8.27,1.78 -2.45,1.07 -6.54,3.62 -12.09,7.57l-19.51 13.93 21.01 29.43 9.66 -6.93c3.6,-2.56 5.87,-5.08 6.83,-7.61 0.96,-2.49 1.13,-4.94 0.53,-7.22 -0.42,-1.74 -1.81,-4.26 -4.23,-7.61l-0.92 -1.32 5.62 -4.04 25.16 35.22 -5.69 4.01 -2.17 -3.05c-1.91,-2.7 -3.48,-4.51 -4.72,-5.36 -1.24,-0.92 -2.81,-1.5 -4.62,-1.81 -1.85,-0.29 -3.52,-0.14 -5.05,0.36 -1.49,0.49 -3.76,1.84 -6.78,3.98l-9.67 6.89 18.55 26.01c1.92,2.7 3.2,4.26 3.91,4.66 0.64,0.39 1.35,0.57 2.13,0.39 0.74,-0.11 2.42,-1.14 4.97,-2.95l12.09 -8.64c6.72,-4.8 11.4,-9.35 14.07,-13.65 2.63,-4.3 4.2,-9.14 4.76,-14.5 0.39,-4.2 0,-9.42 -1.31,-15.6l6.54 -1.89 8.95 31.52 -67.66 48.31 -3.45 -4.84 2.31 -1.63c2.66,-1.92 4.16,-3.27 4.59,-4.05 0.61,-1.24 0.82,-2.55 0.53,-4.09 -0.1,-1 -1.1,-2.77 -2.91,-5.33l-39.42 -55.24c-1.81,-2.52 -3.24,-4.01 -4.37,-4.51 -1.07,-0.5 -2.42,-0.57 -3.91,-0.14 -0.89,0.18 -3.27,1.68 -7.14,4.44l-3.42 -4.83zm91.17 -68.24l36.75 -34.8c7,-6.64 12.94,-10.87 17.91,-12.79 4.94,-1.95 9.67,-2.45 14.18,-1.57 4.55,0.96 8.53,3.23 11.95,6.86 3.52,3.7 5.75,7.93 6.61,12.58 0.85,4.65 0.29,9.45 -1.63,14.47 -1.92,5.01 -5.8,10.27 -11.51,15.85l40.52 5.34c3.38,0.49 5.47,0.67 6.4,0.67 2.17,-0.07 4.2,-0.42 6.04,-1.13 1.81,-0.68 3.59,-1.81 5.19,-3.38l1.32 -1.21 4.05 4.3 -16.31 15.43 -58.47 -9.38 -9.17 8.67 20.9 22.06c2.31,2.42 3.87,3.87 4.62,4.34 1.5,0.82 2.84,1.07 4.16,0.78 1.28,-0.31 3.09,-1.6 5.47,-3.87l1.84 -1.73 4.09 4.3 -27.22 25.73 -4.04 -4.26 2.41 -2.31c1.85,-1.74 2.95,-3.05 3.38,-3.83 0.4,-0.85 0.58,-1.82 0.47,-2.88 -0.03,-1.07 -0.42,-2.13 -1.07,-3.3 -0.32,-0.43 -1.89,-2.17 -4.76,-5.23l-44.32 -46.88c-1.99,-2.06 -3.62,-3.38 -4.86,-3.91 -1.24,-0.53 -2.42,-0.64 -3.55,-0.32 -1.11,0.25 -2.6,1.28 -4.34,2.99l-2.91 2.73 -4.05 -4.3zm23.71 -11.95l25.55 27.01 14.64 -13.89c4.97,-4.7 8.17,-8.28 9.59,-10.8 2.1,-3.56 2.92,-7.18 2.49,-10.95 -0.42,-3.73 -2.27,-7.33 -5.47,-10.7 -2.71,-2.88 -5.58,-4.76 -8.71,-5.62 -2.99,-0.81 -6.04,-0.74 -8.99,0.22 -3.02,0.96 -6.54,3.38 -10.63,7.25l-18.48 17.48zm138.79 -168.49l2.91 -4.16 29.14 11.37 -2.13 6.51c-9.31,-1.49 -17.95,-0.85 -25.91,1.92 -6.57,2.28 -11.9,6.22 -15.85,11.8 -2.42,3.41 -3.95,6.86 -4.7,10.45 -0.68,3.52 -0.53,6.68 0.43,9.31 0.99,2.77 2.45,4.8 4.44,6.22 1.78,1.28 3.94,1.99 6.33,2.13 2.44,0.18 5.08,-0.39 7.85,-1.6 2.77,-1.18 6.61,-3.7 11.4,-7.54l15 -12.01c1.85,-1.46 4.8,-3.41 8.82,-5.8 4.05,-2.44 7.57,-4.09 10.66,-4.76 3.1,-0.78 6.29,-0.81 9.53,-0.21 3.27,0.68 6.36,2.03 9.25,4.05 6.36,4.48 9.92,11.23 10.76,20.19 0.82,9.03 -1.91,17.92 -8.21,26.8 -3.2,4.59 -6.78,8.17 -10.66,10.87 -3.87,2.66 -8.99,4.87 -15.32,6.72l5.83 8.1 -2.88 4.05 -32.7 -15.1 2.7 -6.08c6.68,1.78 13.05,2.39 19.12,1.74 5.97,-0.6 11.3,-2.24 16.03,-4.83 4.69,-2.6 8.46,-5.94 11.34,-9.99 3.94,-5.58 5.72,-11.62 5.33,-18.12 -0.36,-5.44 -2.38,-9.49 -6.18,-12.19 -3.48,-2.45 -7.25,-3.2 -11.23,-2.31 -4.05,0.99 -9.31,4.09 -15.85,9.24l-14.32 11.51c-8.07,6.4 -15.14,9.99 -21.07,10.7 -5.97,0.74 -11.34,-0.61 -16.07,-3.91 -3.66,-2.6 -6.29,-6.08 -7.93,-10.45 -1.6,-4.34 -1.84,-9.53 -0.81,-15.47 1.02,-5.97 3.44,-11.55 7.21,-16.92 3.13,-4.44 6.94,-8.17 11.38,-11.13 3.12,-2.13 6.51,-3.65 10.24,-4.65l-3.87 -6.46zm42.44 -66.78l5.86 -10.24 86.65 14.36c4.3,0.79 7.43,0.82 9.31,0.14 1.91,-0.68 3.55,-2.17 4.83,-4.37l0.78 -1.39 5.15 2.95 -17.38 30.42 -5.15 -2.94c0.5,-1 0.96,-1.96 1.53,-2.92 1.1,-1.99 1.63,-3.41 1.6,-4.23 -0.11,-1.67 -0.75,-2.81 -1.92,-3.44 -0.85,-0.5 -3.31,-1.14 -7.28,-1.92l-19.87 -3.66 -17.62 30.85 14.71 17.23c1.52,1.78 2.63,2.91 3.38,3.31 0.82,0.46 1.67,0.63 2.49,0.57 0.89,-0.07 1.67,-0.39 2.42,-0.96 0.71,-0.57 1.52,-1.67 2.49,-3.3 0.6,-1.1 1.13,-1.99 1.6,-2.66l5.15 2.94 -14.64 25.59 -5.12 -2.95c1.35,-2.34 2.06,-4.22 2.21,-5.54 0.1,-1.28 -0.11,-2.63 -0.71,-3.98 -0.58,-1.39 -2.17,-3.66 -4.81,-6.86l-55.65 -67zm41.68 37.99l15.11 -26.37 -44.32 -7.89 29.21 34.26zm-5.47 -105.56l12.83 -27.22 85.97 -9.2 -50.85 -23.96c-3.06,-1.46 -5.37,-2.17 -6.97,-2.17 -1.6,-0.07 -3.05,0.36 -4.26,1.18 -1.24,0.89 -2.45,2.49 -3.52,4.83l-1.1 2.28 -5.33 -2.52 13.97 -29.68 5.36 2.52 -0.74 1.6c-1.21,2.6 -1.84,4.48 -1.84,5.58 -0.04,1.6 0.6,3.09 1.88,4.54 1.24,1.39 3.31,2.74 6.18,4.09l73.18 34.47 -3.66 7.72 -103.35 11.09 63.69 30.03c3.49,1.63 5.69,2.55 6.57,2.7 1.1,0.18 2.24,0.03 3.45,-0.36 1.13,-0.39 2.13,-1.07 2.94,-1.99 0.75,-0.93 1.92,-2.99 3.52,-6.18l5.37 2.52 -14.19 30.13 -5.36 -2.52 0.74 -1.6c1.46,-3.13 2.13,-5.33 2.06,-6.68 -0.11,-1.39 -0.71,-2.7 -1.89,-3.98 -1.13,-1.28 -3.44,-2.74 -6.89,-4.34l-56.5 -26.62c-3.6,-1.68 -5.76,-2.6 -6.62,-2.81 -1.63,-0.32 -3.02,-0.03 -4.19,0.71 -1.14,0.81 -2.49,2.81 -4.02,6.04l-1.07 2.31 -5.37 -2.52zm58.08 -156.77c2.49,-8.64 6.86,-15.81 13,-21.57 6.68,-6.25 14.11,-10.41 22.47,-12.37 8.27,-1.95 17.17,-1.63 26.51,1.11 14.5,4.19 25.06,12.15 31.6,23.88 6.54,11.69 7.78,24.55 3.73,38.56 -4.54,15.67 -13.68,26.44 -27.33,32.38 -11.13,4.91 -22.96,5.51 -35.47,1.88 -9.27,-2.7 -16.99,-7.21 -23.14,-13.57 -6.15,-6.29 -10.24,-13.97 -12.33,-22.93 -2.02,-8.99 -1.7,-18.16 0.96,-27.37zm7.36 2.17c-2.06,7.11 -2.21,13.61 -0.47,19.65 1.78,6.01 5.33,11.44 10.69,16.34 5.37,4.87 12.66,8.64 21.86,11.34 8.78,2.53 16.67,3.2 23.67,1.92 6.96,-1.28 12.83,-3.94 17.55,-8.07 4.7,-4.15 7.99,-9.42 9.81,-15.74 1.81,-6.29 1.84,-12.33 0.1,-18.12 -1.78,-5.76 -5.62,-11.27 -11.51,-16.39 -5.93,-5.15 -13,-8.95 -21.36,-11.37 -8.49,-2.45 -16.7,-3.1 -24.66,-1.95 -6.83,0.92 -12.33,3.23 -16.53,6.89 -4.19,3.66 -7.25,8.82 -9.16,15.5zm-941.84 -1623.83c373.93,0 712.42,151.59 957.47,396.6 245.02,245.05 396.6,583.54 396.6,957.47 0,373.93 -151.58,712.45 -396.6,957.47 -245.05,245.01 -583.54,396.6 -957.47,396.6 -373.92,0 -712.45,-151.59 -957.46,-396.6 -245.02,-245.02 -396.6,-583.54 -396.6,-957.47 0,-373.93 151.58,-712.42 396.6,-957.47 245.01,-245.01 583.54,-396.6 957.46,-396.6zm926.76 427.31c-237.16,-237.2 -564.85,-383.91 -926.76,-383.91 -361.91,0 -689.63,146.71 -926.76,383.91 -237.2,237.16 -383.91,564.85 -383.91,926.76 0,361.91 146.71,689.63 383.91,926.76 237.13,237.2 564.85,383.91 926.76,383.91 361.91,0 689.6,-146.71 926.76,-383.91 237.2,-237.13 383.91,-564.85 383.91,-926.76 0,-361.91 -146.71,-689.6 -383.91,-926.76z"/>
  </g>
 </g>
</svg>
