<?xml version="1.0" encoding="UTF-8"?>
<!DOCTYPE svg PUBLIC "-//W3C//DTD SVG 1.1//EN" "http://www.w3.org/Graphics/SVG/1.1/DTD/svg11.dtd">
<!-- Creator: CorelDRAW 2020 (64-Bit) -->
<svg xmlns="http://www.w3.org/2000/svg" xml:space="preserve" width="35.2336mm" height="35.234mm" version="1.1" style="shape-rendering:geometricPrecision; text-rendering:geometricPrecision; image-rendering:optimizeQuality; fill-rule:evenodd; clip-rule:evenodd"
viewBox="0 0 2548 2548.03"
 xmlns:xlink="http://www.w3.org/1999/xlink"
 xmlns:xodm="http://www.corel.com/coreldraw/odm/2003">
 <defs>
  <style type="text/css">
   <![CDATA[
    .fil0 {fill:#FEFEFE}
    .fil1 {fill:#1F262E}
   ]]>
  </style>
 </defs>
 <g id="Capa_x0020_1">
  <metadata id="CorelCorpID_0Corel-Layer"/>
  <path class="fil0" d="M1273.99 0c338.97,0 661.23,133.55 900.86,373.18 239.63,239.59 373.15,561.91 373.15,900.84 0,338.93 -133.52,661.24 -373.15,900.84 -239.63,239.63 -561.9,373.18 -900.86,373.18 -338.94,0 -661.24,-133.55 -900.84,-373.18 -239.63,-239.59 -373.14,-561.91 -373.14,-900.84 0,-338.93 133.51,-661.24 373.14,-900.84 239.6,-239.63 561.91,-373.18 900.84,-373.18z"/>
  <path class="fil1" d="M1305.35 1328.67l-125.29 0 0 222.47 -154.09 0 0 -554.23 154.09 0 0 208.32 125.29 0 0 123.44zm216.67 -331.76l0 554.23 -154.09 0 0 -175.54 0 -46.93 0 -123.44 0 -58.21 0 -150.11 154.09 0zm-243.13 -348.01c104.96,0 203.85,25.19 290.77,69.66 -56.87,-18.83 -117.63,-29.07 -180.82,-29.07 -315.8,0 -571.79,254.86 -571.79,569.27 0,314.41 255.99,569.27 571.79,569.27 63.19,0 123.95,-10.23 180.82,-29.07 -86.92,44.45 -185.81,69.66 -290.77,69.66 -345.79,0 -626.12,-273.03 -626.12,-609.86 0,-336.83 280.32,-609.86 626.12,-609.86zm128.08 1099.11c-80.97,0 -157.28,-20.21 -224.3,-55.87 43.84,15.1 90.71,23.34 139.48,23.34 243.62,0 441.06,-204.49 441.06,-456.71 0,-252.25 -197.44,-456.74 -441.06,-456.74 -48.76,0 -95.64,8.24 -139.48,23.34 67.02,-35.64 143.33,-55.87 224.3,-55.87 266.74,0 482.96,219.04 482.96,489.28 0,270.21 -216.21,489.25 -482.96,489.25zm-132.98 -1531.88c584.25,0 1057.88,473.64 1057.88,1057.88 0,584.24 -473.63,1057.88 -1057.88,1057.88 -584.24,0 -1057.87,-473.64 -1057.87,-1057.88 0,-584.24 473.63,-1057.88 1057.87,-1057.88zm-0.82 374.32c368.49,0 667.21,298.76 667.21,667.24 0,368.49 -298.73,667.21 -667.21,667.21 -368.49,0 -667.25,-298.73 -667.25,-667.21 0,-368.49 298.76,-667.24 667.25,-667.24zm-893.07 478.83l136.26 25.58 -4.17 22.36 -59.6 -11.21 -12.03 64.13 59.58 11.21 -4.19 22.33 -136.26 -25.55 4.17 -22.36 58.42 10.93 12.03 -64.1 -58.39 -10.97 4.19 -22.35zm153.94 -116.6l-20.39 54.38 23.03 19.29 -8.32 22.24 -112.65 -95.24 9.26 -24.64 147.47 2.13 -8.39 22.42 -30.01 -0.58zm-19.63 -0.51l-68.3 -1.49 52.41 43.9 15.89 -42.41zm79.69 -91.32l25.37 -39.41 15.43 9.9 -37.67 58.58 -116.6 -75.01 12.3 -19.14 101.16 65.08zm108.95 -113.23c-9.03,9.21 -19.5,15.59 -31.41,19.11 -11.91,3.52 -23.94,3.74 -36.12,0.64 -12.12,-3.07 -23.05,-9.33 -32.81,-18.8 -9.66,-9.48 -16.13,-20.26 -19.41,-32.33 -3.28,-12.06 -3.31,-24.06 -0.07,-36.04 3.25,-11.97 9.39,-22.57 18.41,-31.81 9.11,-9.3 19.66,-15.74 31.54,-19.23 11.91,-3.53 23.91,-3.74 35.97,-0.7 12.09,3.07 22.97,9.36 32.66,18.84 9.72,9.51 16.25,20.26 19.59,32.29 3.41,12.09 3.46,24.1 0.22,36.06 -3.25,12 -9.48,22.66 -18.56,31.96zm-14.12 -13.79c6.44,-6.59 10.63,-13.88 12.66,-21.96 2.04,-8.05 1.71,-16.26 -1.03,-24.64 -2.7,-8.29 -7.75,-16.07 -15.07,-23.24 -7.33,-7.14 -15.19,-12 -23.52,-14.49 -8.35,-2.46 -16.5,-2.61 -24.49,-0.33 -7.99,2.25 -15.16,6.62 -21.6,13.21 -6.38,6.54 -10.63,13.83 -12.7,21.85 -2.1,8.02 -1.79,16.16 0.88,24.49 2.68,8.29 7.66,16.01 15.01,23.15 7.33,7.2 15.16,12.03 23.55,14.59 8.45,2.55 16.65,2.73 24.64,0.51 8.02,-2.22 15.25,-6.6 21.67,-13.13zm225.72 -149.75l-55.57 -31.71 -14.98 8.78 28.07 47.85 -19.63 11.51 -70.15 -119.61 41.31 -24.21c9.18,-5.41 17.9,-8.35 26.13,-8.87 8.24,-0.51 15.56,0.98 21.88,4.53 6.29,3.56 11.42,8.63 15.31,15.28 4.59,7.81 6.5,16.23 5.68,25.28 -0.79,9.02 -5.23,17.41 -13.31,25.21l58.69 32.24 -23.45 13.73zm-79.75 -38.61l21.72 -12.7c7.32,-4.32 11.82,-9.39 13.36,-15.25 1.58,-5.86 0.55,-11.87 -3.1,-18.11 -3.64,-6.16 -8.29,-9.93 -14.04,-11.27 -5.74,-1.37 -12.3,0.15 -19.75,4.53l-21.72 12.73 23.51 40.07zm132.12 -114.96l14.13 38.13 44.9 -16.62 6.44 17.41 -44.87 16.62 14.76 39.86 50.49 -18.72 6.44 17.38 -71.82 26.64 -48.27 -130.24 71.88 -26.58 6.44 17.41 -50.53 18.71zm190.19 75.93c-9.18,1.34 -17.75,0.91 -25.55,-1.24 -7.87,-2.13 -14.31,-5.86 -19.39,-11.18 -5.07,-5.29 -8.2,-11.88 -9.32,-19.78l24.06 -3.53c1.4,5.84 4.43,10.39 9.18,13.58 4.68,3.23 10.78,4.29 18.25,3.19 7.78,-1.12 13.58,-3.92 17.38,-8.26 3.8,-4.4 5.26,-9.57 4.4,-15.47 -0.69,-4.61 -2.55,-8.17 -5.71,-10.69 -3.1,-2.49 -6.81,-4.22 -11.03,-5.23 -4.29,-0.97 -10.03,-1.88 -17.41,-2.7 -9.33,-1.06 -16.96,-2.4 -22.91,-4.04 -5.92,-1.61 -11.27,-4.71 -15.92,-9.23 -4.71,-4.58 -7.69,-11.14 -8.93,-19.68 -1.16,-7.9 -0.19,-15.1 2.91,-21.57 3.07,-6.53 7.93,-11.87 14.58,-16.07 6.62,-4.19 14.64,-6.96 23.97,-8.32 13.31,-1.92 24.7,-0.18 34.15,5.23 9.44,5.4 15.49,13.82 18.07,25.27l-24.88 3.62c-1.09,-4.95 -4.1,-8.87 -8.96,-11.79 -4.83,-2.95 -10.85,-3.86 -17.96,-2.83 -6.44,0.94 -11.48,3.34 -15.1,7.23 -3.56,3.89 -4.92,8.9 -4.01,15.13 0.61,4.16 2.4,7.44 5.35,9.78 2.94,2.31 6.53,3.95 10.72,5.01 4.16,0.97 9.78,1.91 16.92,2.73 9.44,1.19 17.19,2.61 23.3,4.28 6.1,1.67 11.54,4.83 16.28,9.42 4.77,4.61 7.81,11.24 9.05,19.92 1.03,6.99 0.09,13.88 -2.73,20.57 -2.86,6.78 -7.59,12.52 -14.25,17.32 -6.6,4.8 -14.8,7.9 -24.54,9.33zm190.48 -148.32l-0.09 18.56 -36.91 -0.24 -0.76 120.12 -22.72 -0.15 0.73 -120.09 -37.1 -0.21 0.09 -18.56 96.76 0.58zm135.83 136.1l-56.57 -13.06 -16.13 25.36 -23.09 -5.34 79.66 -124.13 25.64 5.92 17.17 146.49 -23.33 -5.41 -3.35 -29.83zm-2.06 -19.5l-7.44 -67.87 -36.67 57.66 44.11 10.21zm155.82 -43.26l-39.35 79.14c-4.68,9.39 -5.74,17.71 -3.15,24.91 2.55,7.23 8.23,13.03 17.04,17.41 8.93,4.47 17.07,5.56 24.4,3.23 7.26,-2.31 13.28,-8.17 17.95,-17.59l39.38 -79.08 20.39 10.12 -39.22 78.78c-5.01,10.12 -11.48,17.59 -19.38,22.42 -7.9,4.83 -16.4,7.11 -25.52,6.9 -9.08,-0.18 -18.11,-2.52 -27.07,-6.96 -8.9,-4.46 -16.16,-10.2 -21.78,-17.35 -5.59,-7.08 -8.81,-15.19 -9.57,-24.36 -0.79,-9.14 1.3,-18.8 6.35,-28.89l39.19 -78.78 20.36 10.12zm121.88 231.56l4.8 -63.83 -14.37 -9.75 -31.17 45.87 -18.84 -12.79 77.92 -114.66 39.65 26.92c8.78,5.96 15.19,12.58 19.2,19.81 4.01,7.2 5.77,14.46 5.29,21.67 -0.48,7.26 -2.89,14.03 -7.2,20.42 -5.11,7.47 -11.91,12.82 -20.42,15.95 -8.48,3.16 -17.99,2.77 -28.46,-1.15l-3.95 66.81 -22.45 -15.25zm0.64 -88.59l20.81 14.12c7.01,4.77 13.52,6.65 19.48,5.56 6.02,-1.13 10.96,-4.62 15.03,-10.57 4.04,-5.92 5.44,-11.79 4.17,-17.53 -1.19,-5.74 -5.41,-11.06 -12.55,-15.89l-20.81 -14.16 -26.13 38.47zm135.89 184.98l-39.62 -42.44 -27.55 12.03 -16.16 -17.38 135.41 -58.42 17.99 19.26 -67.63 131.06 -16.31 -17.5 13.88 -26.61zm9.21 -17.34l31.75 -60.43 -62.64 27.34 30.89 33.09zm76.04 200.48l-11.51 -19.6 54.69 -111.4 -89.29 52.38 -11.51 -19.63 119.79 -70.24 11.51 19.6 -54.56 111.35 89.17 -52.32 11.51 19.63 -119.79 70.24zm179.92 88.68l-17.41 6.44 -12.81 -34.63 -112.62 41.78 -7.9 -21.33 112.62 -41.77 -12.88 -34.78 17.38 -6.44 33.63 90.75zm0.36 101.98l-40.25 5.86 6.93 47.37 -18.38 2.7 -6.93 -47.39 -42.02 6.1 7.72 53.32 -18.35 2.68 -11.03 -75.83 137.41 -19.99 11.03 75.8 -18.35 2.68 -7.77 -53.29zm-1700.69 322.98l8.48 29.53 -4.9 1.4 -0.64 -2.28c-0.61,-2.1 -1.03,-3.38 -1.37,-3.86 -0.46,-0.73 -1.01,-1.21 -1.64,-1.45 -0.64,-0.27 -1.31,-0.31 -1.97,-0.09 -1.03,0.3 -2.46,1.12 -4.22,2.49l-49.86 37.46 62.22 5.66c2.18,0.18 3.83,0.18 4.86,-0.12 1.09,-0.3 1.79,-0.94 2.1,-1.85 0.27,-0.95 0.09,-2.59 -0.61,-4.98l-0.76 -2.7 4.86 -1.37 7.17 25.09 -4.82 1.4c-0.58,-2.19 -1.28,-3.71 -1.98,-4.58 -0.69,-0.91 -1.58,-1.61 -2.52,-2.04 -1.28,-0.51 -3.31,-0.91 -6.11,-1.19l-76.22 -7.93 -2.37 -8.24 60.58 -46.78c2.04,-1.52 3.22,-2.55 3.71,-3.04 0.64,-0.8 1.12,-1.58 1.42,-2.4 0.33,-0.79 0.48,-1.74 0.48,-2.73 0,-1.01 -0.27,-2.34 -0.76,-3.98l4.87 -1.4zm30.11 99.77l24.94 63.8 -17.71 15.43 -3.77 -4.25c2.85,-2.55 4.98,-4.95 6.35,-7.17 1.37,-2.22 2.28,-4.62 2.82,-7.2 0.58,-2.58 0.67,-4.98 0.3,-7.23 -0.36,-2.25 -1.64,-6.13 -3.77,-11.6l-7.47 -19.05 -28.77 11.24 3.7 9.44c1.37,3.5 2.98,5.93 4.89,7.23 1.86,1.34 3.83,2.01 5.86,1.95 1.52,0.03 3.92,-0.58 7.17,-1.88l1.34 -0.52 2.16 5.56 -34.45 13.46 -2.16 -5.56 2.97 -1.15c2.62,-1.03 4.47,-1.95 5.47,-2.83 1,-0.82 1.82,-1.97 2.46,-3.44 0.58,-1.49 0.85,-2.86 0.73,-4.25 -0.09,-1.34 -0.7,-3.52 -1.86,-6.44l-3.73 -9.47 -25.4 9.94c-2.65,1.06 -4.19,1.76 -4.72,2.24 -0.46,0.49 -0.72,1.03 -0.76,1.71 -0.06,0.69 0.46,2.28 1.43,4.79l4.61 11.79c2.55,6.57 5.38,11.43 8.39,14.52 3.01,3.07 6.65,5.38 11.03,6.96 3.37,1.22 7.81,1.98 13.18,2.19l0.18 5.8 -27.98 0.85 -25.88 -66.2 4.71 -1.85 0.88 2.25c1.03,2.64 1.82,4.16 2.4,4.64 0.91,0.76 1.97,1.28 3.25,1.31 0.85,0.09 2.58,-0.33 5.08,-1.31l54.01 -21.11c2.47,-0.95 3.98,-1.86 4.65,-2.68 0.64,-0.79 0.97,-1.88 0.94,-3.22 0.03,-0.76 -0.73,-3.04 -2.21,-6.84l4.71 -1.85zm36.24 88.29l12.92 22.24 -35.33 64.96 41.59 -24.15c2.49,-1.42 4.14,-2.7 4.92,-3.83 0.79,-1.09 1.19,-2.31 1.21,-3.59 -0.03,-1.3 -0.58,-2.89 -1.67,-4.79l-1.09 -1.86 4.38 -2.55 14.09 24.25 -4.4 2.55 -0.73 -1.31c-1.24,-2.13 -2.25,-3.49 -3.04,-4.04 -1.13,-0.79 -2.49,-1.06 -4.1,-0.85 -1.61,0.21 -3.59,1 -5.93,2.34l-59.78 34.7 -3.64 -6.32 42.41 -78.04 -52.04 30.16c-2.89,1.67 -4.58,2.8 -5.11,3.31 -0.64,0.7 -1.12,1.58 -1.4,2.61 -0.3,1.01 -0.3,2.01 -0.03,3.04 0.24,1.01 1.12,2.83 2.61,5.5l-4.38 2.52 -14.31 -24.6 4.38 -2.52 0.8 1.31c1.45,2.52 2.7,4.04 3.67,4.68 1.01,0.57 2.25,0.82 3.71,0.57 1.45,-0.18 3.58,-1.09 6.38,-2.73l46.2 -26.79c2.92,-1.67 4.62,-2.76 5.17,-3.28 1.03,-1 1.55,-2.06 1.58,-3.28 0,-1.21 -0.79,-3.1 -2.31,-5.74l-1.09 -1.92 4.37 -2.52zm53.11 88.89l18.47 26.28 -4.13 2.95 -1.43 -2.07c-1.34,-1.88 -2.55,-3.07 -3.67,-3.55 -1.13,-0.49 -2.34,-0.58 -3.56,-0.27 -1.24,0.27 -3.28,1.4 -6.1,3.37l-44.39 31.2c-2.25,1.58 -3.7,2.92 -4.34,4.01 -0.64,1.09 -0.88,2.16 -0.8,3.22 0.12,1.06 0.85,2.65 2.25,4.62l1.46 2.03 -4.17 2.89 -18.47 -26.27 4.13 -2.92 1.53 2.16c1.37,1.94 2.58,3.19 3.61,3.67 0.98,0.48 2.04,0.64 3.1,0.39 1.12,-0.24 2.89,-1.21 5.29,-2.91l45.33 -31.81c2.58,-1.86 4.19,-3.25 4.83,-4.19 0.64,-1.01 0.85,-2.03 0.73,-3.16 -0.15,-1.09 -0.91,-2.61 -2.28,-4.56l-1.53 -2.19 4.14 -2.89zm-45.12 118.73l1.16 -4.98c10.39,2.46 17.35,2.31 20.93,-0.46 0.4,-0.33 0.91,-0.76 1.46,-1.28 -0.64,-0.39 -1.24,-0.79 -1.76,-1.18 -0.51,-0.43 -0.94,-0.85 -1.27,-1.31 -1.21,-1.52 -1.64,-3.16 -1.37,-4.86 0.3,-1.7 1.19,-3.13 2.7,-4.29 1.52,-1.15 3.25,-1.63 5.22,-1.33 1.97,0.24 3.59,1.18 4.77,2.73 1.67,2.18 2.25,4.74 1.67,7.59 -0.55,2.91 -2.22,5.41 -4.95,7.51 -1.79,1.37 -3.95,2.46 -6.47,3.22 -2.55,0.79 -5.16,1.12 -7.93,1.01 -2.76,-0.12 -7.51,-0.91 -14.16,-2.37zm146.25 5.77l6.93 7.32 -33.24 67.33c-1.74,3.34 -2.52,5.92 -2.43,7.62 0.09,1.74 0.88,3.46 2.36,5.05l0.91 0.94 -3.67 3.49 -20.57 -21.78 3.67 -3.46c0.73,0.67 1.4,1.27 2.07,1.97 1.34,1.4 2.34,2.22 3.04,2.34 1.37,0.36 2.46,0.12 3.28,-0.67 0.64,-0.58 1.76,-2.43 3.37,-5.5l7.93 -15.35 -20.87 -22.06 -17.75 7.72c-1.82,0.82 -3.04,1.46 -3.52,1.95 -0.61,0.58 -0.94,1.21 -1.13,1.92 -0.12,0.73 -0.06,1.46 0.22,2.18 0.27,0.73 1,1.71 2.1,2.89 0.73,0.77 1.34,1.43 1.76,1.95l-3.67 3.49 -17.28 -18.29 3.67 -3.49c1.61,1.71 2.94,2.77 3.95,3.19 1.03,0.4 2.22,0.58 3.46,0.4 1.27,-0.12 3.56,-0.88 6.81,-2.25l68.6 -28.89zm-41.44 24.73l17.86 18.9 17.44 -34.33 -35.3 15.43zm85.52 17.62l19.96 16.23 -9.94 73.24 30.29 -37.31c1.79,-2.21 2.89,-4.01 3.25,-5.34 0.36,-1.31 0.3,-2.58 -0.12,-3.77 -0.51,-1.24 -1.58,-2.52 -3.28,-3.92l-1.67 -1.37 3.16 -3.92 21.78 17.68 -3.19 3.92 -1.16 -0.94c-1.91,-1.52 -3.34,-2.46 -4.25,-2.68 -1.34,-0.36 -2.73,-0.15 -4.16,0.64 -1.43,0.76 -2.98,2.19 -4.71,4.32l-43.54 53.62 -5.71 -4.59 11.97 -88.04 -37.94 46.7c-2.1,2.58 -3.28,4.22 -3.56,4.89 -0.39,0.88 -0.54,1.89 -0.42,2.95 0.09,1.06 0.42,2 1.03,2.85 0.61,0.82 2.1,2.25 4.41,4.22l-3.16 3.92 -22.09 -17.95 3.16 -3.92 1.18 0.94c2.25,1.85 3.95,2.86 5.11,3.07 1.19,0.22 2.37,-0.03 3.67,-0.73 1.31,-0.72 2.98,-2.31 4.98,-4.83l33.69 -41.47c2.13,-2.61 3.34,-4.25 3.68,-4.89 0.57,-1.28 0.67,-2.49 0.27,-3.64 -0.42,-1.13 -1.82,-2.62 -4.19,-4.56l-1.71 -1.37 3.2 -3.95zm79.81 61.7l27.16 17.23 -2.67 4.26 -2.1 -1.31c-1.95,-1.24 -3.56,-1.85 -4.8,-1.89 -1.19,0 -2.34,0.37 -3.37,1.13 -1.06,0.73 -2.49,2.55 -4.35,5.44l-29.01 45.87c-1.43,2.28 -2.25,4.14 -2.43,5.35 -0.18,1.27 0,2.36 0.51,3.31 0.52,0.94 1.79,2.09 3.83,3.37l2.13 1.34 -2.7 4.25 -27.19 -17.17 2.7 -4.28 2.25 1.42c2,1.28 3.58,1.95 4.74,1.98 1.09,0.09 2.13,-0.22 3.04,-0.82 0.91,-0.64 2.19,-2.22 3.74,-4.71l29.62 -46.82c1.67,-2.64 2.64,-4.56 2.82,-5.71 0.22,-1.15 0.04,-2.21 -0.51,-3.19 -0.55,-0.94 -1.85,-2.06 -3.85,-3.31l-2.25 -1.42 2.7 -4.32zm45.57 30.63l23.63 12 -7.93 70.76 51.8 -48.52 22.66 11.51 -2.31 4.53 -1.91 -1.01c-2.31,-1.16 -3.95,-1.73 -4.95,-1.73 -1.03,0 -1.95,0.33 -2.95,1.12 -0.94,0.76 -2.03,2.25 -3.19,4.56l-25.12 49.49c-1.58,3.1 -2.4,5.25 -2.55,6.38 -0.06,1.12 0.18,2.16 0.82,3.04 0.61,0.97 2.09,2.03 4.43,3.22l1.92 0.98 -2.31 4.53 -28.44 -14.49 2.28 -4.47 2.07 1.03c1.82,0.91 3.25,1.46 4.25,1.58 0.98,0.15 1.92,0.04 2.8,-0.36 0.91,-0.4 1.55,-0.91 2,-1.61 0.91,-1.37 1.61,-2.46 2,-3.28l28.07 -55.26 -58.51 54.74 -5.41 -2.73 8.84 -78.78 -26.97 53.2c-1.37,2.7 -2.1,4.68 -2.13,5.86 0,1.19 0.33,2.28 1.06,3.28 0.76,1.06 2.37,2.22 4.92,3.53l1.74 0.88 -2.28 4.53 -26.46 -13.47 2.31 -4.49 1.46 0.76c2.58,1.3 4.56,1.95 5.92,1.97 1.37,0 2.55,-0.37 3.49,-1.09 0.97,-0.8 2.18,-2.62 3.67,-5.5l24.94 -49.15c1.37,-2.7 2.1,-4.58 2.16,-5.65 0,-1.1 -0.3,-2.07 -1.01,-2.95 -0.67,-0.88 -2.22,-1.95 -4.56,-3.13l-2.58 -1.3 2.31 -4.5zm138.44 63.8l9.57 3.25 2.13 75.07c0.04,3.74 0.55,6.38 1.43,7.87 0.88,1.46 2.36,2.62 4.43,3.31l1.28 0.43 -1.64 4.8 -28.35 -9.6 1.64 -4.79c0.94,0.21 1.82,0.48 2.7,0.76 1.85,0.64 3.13,0.85 3.8,0.67 1.37,-0.36 2.22,-1.06 2.61,-2.16 0.27,-0.8 0.37,-2.95 0.37,-6.41l-0.15 -17.25 -28.78 -9.75 -12.06 15.16c-1.21,1.55 -1.97,2.7 -2.22,3.37 -0.27,0.79 -0.27,1.49 -0.06,2.19 0.21,0.73 0.61,1.34 1.15,1.85 0.64,0.51 1.7,1.03 3.25,1.55 0.97,0.33 1.82,0.67 2.46,0.94l-1.61 4.77 -23.84 -8.08 1.61 -4.8c2.22,0.76 3.89,1.06 5.01,0.94 1.1,-0.12 2.19,-0.48 3.25,-1.24 1.03,-0.7 2.68,-2.43 4.95,-5.16l47.06 -57.67zm-25.04 41.23l24.64 8.35 -0.67 -38.46 -23.97 30.11zm88.23 -23.12l4.13 0.94 -0.06 2.89 50.22 11.43 1.09 -2.68 4.35 0.98 3.16 26.09 -5.74 0.7c-1.06,-6.99 -3.07,-12.19 -5.99,-15.61 -2.89,-3.38 -7.07,-5.71 -12.51,-6.96 -2.31,-0.51 -3.64,-0.72 -4.1,-0.69 -0.49,0.09 -0.85,0.33 -1.16,0.76 -0.27,0.36 -0.64,1.7 -1.19,4.04l-12.97 56.9c-0.61,2.73 -0.88,4.58 -0.79,5.59 0.06,1.03 0.33,1.85 0.76,2.46 0.43,0.67 1.09,1.19 2.04,1.61 0.85,0.48 3,1.06 6.28,1.88l-1.12 4.92 -31.44 -7.14 1.12 -4.95c3.49,0.73 5.65,1.12 6.5,1.09 1.46,-0.06 2.58,-0.58 3.44,-1.58 0.82,-0.94 1.58,-2.91 2.28,-5.86l13.25 -58.18c0.39,-1.79 0.54,-2.91 0.48,-3.34 -0.09,-0.43 -0.37,-0.82 -0.79,-1.12 -0.46,-0.37 -1.43,-0.67 -2.98,-1.01 -4.29,-1.01 -7.81,-1.24 -10.64,-0.73 -2.79,0.55 -5.65,1.85 -8.5,3.95 -2.89,2.13 -5.59,5.08 -8.14,8.9l-4.86 -3.1 13.88 -22.18zm84.67 20.78l67.9 9.15 4.9 22.97 -5.53 1.27c-0.85,-3.73 -1.91,-6.78 -3.22,-9.05 -1.24,-2.28 -2.89,-4.25 -4.89,-5.98 -1.98,-1.74 -4.04,-2.95 -6.2,-3.74 -2.16,-0.79 -6.17,-1.58 -11.94,-2.37l-20.33 -2.73 -4.13 30.63 10.08 1.37c3.71,0.48 6.62,0.25 8.66,-0.76 2.1,-1.01 3.62,-2.37 4.58,-4.19 0.76,-1.3 1.37,-3.74 1.82,-7.17l0.18 -1.4 5.89 0.79 -4.95 36.64 -5.89 -0.79 0.46 -3.19c0.33,-2.8 0.46,-4.83 0.18,-6.11 -0.25,-1.33 -0.88,-2.58 -1.82,-3.83 -1.01,-1.27 -2.1,-2.16 -3.38,-2.73 -1.21,-0.58 -3.4,-1.09 -6.53,-1.49l-10.05 -1.37 -3.68 27.04c-0.36,2.83 -0.48,4.53 -0.33,5.19 0.22,0.64 0.58,1.16 1.13,1.52 0.57,0.34 2.21,0.7 4.86,1.06l12.58 1.67c6.99,0.98 12.58,0.85 16.77,-0.27 4.16,-1.13 7.96,-3.23 11.42,-6.29 2.7,-2.31 5.53,-5.84 8.33,-10.42l5.19 2.65 -12.85 24.88 -70.45 -9.51 0.67 -5.01 2.37 0.3c2.79,0.4 4.53,0.43 5.26,0.15 1.09,-0.36 2.03,-1.09 2.73,-2.18 0.48,-0.7 0.94,-2.4 1.3,-5.05l7.75 -57.48c0.36,-2.64 0.3,-4.4 -0.09,-5.38 -0.36,-0.94 -1.19,-1.76 -2.37,-2.36 -0.64,-0.4 -3.01,-0.85 -7.04,-1.4l0.67 -5.02zm180.89 10.18l10.05 -0.76 31.33 68.2c1.52,3.44 3.01,5.68 4.38,6.68 1.4,1.03 3.25,1.49 5.4,1.34l1.34 -0.12 0.37 5.08 -29.84 2.25 -0.39 -5.05c0.97,-0.15 1.88,-0.27 2.82,-0.36 1.95,-0.12 3.19,-0.4 3.77,-0.88 1.09,-0.85 1.61,-1.85 1.52,-3.01 -0.06,-0.85 -0.79,-2.86 -2.16,-6.05l-6.9 -15.83 -30.32 2.31 -5.16 18.65c-0.49,1.95 -0.76,3.28 -0.7,3.98 0.09,0.82 0.33,1.49 0.79,2.07 0.48,0.55 1.09,0.98 1.82,1.21 0.76,0.25 1.95,0.27 3.53,0.15 1.06,-0.06 1.97,-0.09 2.67,-0.09l0.37 5.01 -25.09 1.91 -0.4 -5.04c2.34,-0.15 4.01,-0.55 4.98,-1.09 0.97,-0.52 1.85,-1.34 2.49,-2.4 0.69,-1.06 1.55,-3.28 2.55,-6.68l20.78 -71.49zm-6.93 47.72l25.91 -1.97 -15.64 -35.12 -10.27 37.09zm190.73 -77.19l4.25 -0.98 13.79 25.67 -5.11 2.76c-4.4,-5.59 -7.59,-9.32 -9.63,-11.12 -3.31,-2.91 -7.08,-4.92 -11.3,-6.11 -4.22,-1.15 -8.6,-1.21 -13.13,-0.15 -5.32,1.19 -9.87,3.74 -13.67,7.63 -3.8,3.85 -6.47,8.81 -7.96,14.92 -1.52,6.16 -1.49,12.6 0.09,19.47 1.64,7.02 4.46,12.97 8.53,17.83 4.1,4.9 8.87,8.24 14.34,10.12 5.5,1.89 10.97,2.16 16.5,0.85 5.23,-1.19 10.24,-3.89 15.01,-8.14 4.77,-4.22 8.54,-9.51 11.3,-15.77l5.47 2.13c-1.58,4.19 -3.52,7.84 -5.77,11.03 -3.52,5.01 -7.5,9.11 -11.87,12.12 -4.38,3.01 -9.48,5.19 -15.22,6.56 -12.76,2.92 -24.21,0.58 -34.36,-7.01 -8.36,-6.32 -13.83,-14.85 -16.31,-25.67 -1.82,-7.93 -1.64,-15.56 0.48,-22.79 2.16,-7.32 6.07,-13.57 11.57,-18.86 5.53,-5.26 12.03,-8.75 19.45,-10.46 3.95,-0.91 7.75,-1.24 11.39,-0.91 3.68,0.3 7.51,1.25 11.55,2.83l0.61 -5.95zm71.85 -26.65c7.17,-2.82 14.28,-3.61 21.42,-2.43 7.69,1.25 14.4,4.17 20.05,8.78 5.65,4.62 10.02,10.79 13.06,18.56 4.71,12.03 4.8,23.34 0.25,33.87 -4.5,10.51 -12.61,18.05 -24.22,22.58 -13,5.07 -25.03,4.49 -36.18,-1.67 -9.08,-4.98 -15.64,-12.7 -19.75,-23.06 -2.97,-7.69 -3.92,-15.28 -2.82,-22.79 1.09,-7.44 4.16,-14.22 9.14,-20.29 5.05,-6.05 11.43,-10.57 19.05,-13.55zm2.34 6.11c-5.86,2.28 -10.36,5.59 -13.55,9.9 -3.16,4.35 -5.01,9.57 -5.53,15.77 -0.48,6.17 0.73,13.09 3.71,20.69 2.86,7.29 6.53,12.97 11,17.07 4.5,4.06 9.39,6.62 14.64,7.68 5.22,1.03 10.51,0.55 15.77,-1.52 5.23,-2.03 9.36,-5.19 12.34,-9.39 3,-4.19 4.71,-9.63 5.13,-16.31 0.39,-6.68 -0.7,-13.52 -3.41,-20.42 -2.76,-7.04 -6.6,-12.94 -11.48,-17.74 -4.22,-4.13 -8.69,-6.65 -13.34,-7.63 -4.65,-0.91 -9.76,-0.27 -15.28,1.89zm55.9 -27.52l23.08 -13.07 54.56 45.78 -11.76 -69.97 22.15 -12.55 2.49 4.41 -1.91 1.06c-2.25,1.27 -3.64,2.31 -4.19,3.15 -0.58,0.85 -0.79,1.83 -0.7,3.07 0.09,1.21 0.8,2.97 2.04,5.19l27.34 48.31c1.73,3.07 3.04,4.92 3.92,5.65 0.85,0.7 1.88,1.03 2.97,1.01 1.13,0.03 2.8,-0.61 5.11,-1.92l1.89 -1.06 2.49 4.4 -27.77 15.71 -2.49 -4.4 1.97 -1.13c1.79,-1 3.01,-1.88 3.71,-2.64 0.67,-0.73 1.06,-1.58 1.21,-2.55 0.18,-0.94 0.12,-1.79 -0.22,-2.55 -0.64,-1.52 -1.15,-2.7 -1.64,-3.52l-30.5 -53.93 13.24 79.05 -5.26 2.98 -60.72 -50.95 29.38 51.89c1.49,2.65 2.73,4.32 3.7,5.01 1.01,0.64 2.1,0.98 3.35,0.91 1.27,0 3.12,-0.73 5.65,-2.13l1.7 -0.94 2.49 4.4 -25.85 14.59 -2.49 -4.41 1.46 -0.82c2.52,-1.4 4.13,-2.7 4.89,-3.83 0.79,-1.13 1.13,-2.28 1.03,-3.53 -0.09,-1.21 -0.91,-3.25 -2.55,-6.07l-27.13 -47.97c-1.49,-2.65 -2.68,-4.29 -3.53,-4.92 -0.88,-0.64 -1.88,-0.88 -3.01,-0.82 -1.09,0.12 -2.82,0.79 -5.13,2.06l-2.49 1.43 -2.49 -4.4zm107.42 -63.47l55.75 -39.74 19.26 13.36 -3.15 4.74c-3.2,-2.16 -6.02,-3.64 -8.51,-4.4 -2.49,-0.8 -5.04,-1.13 -7.69,-1.03 -2.61,0.09 -4.98,0.61 -7.07,1.52 -2.1,0.91 -5.59,3.1 -10.33,6.47l-16.68 11.9 17.96 25.16 8.26 -5.92c3.07,-2.19 5.02,-4.35 5.84,-6.5 0.82,-2.13 0.97,-4.22 0.46,-6.17 -0.36,-1.49 -1.55,-3.64 -3.62,-6.5l-0.79 -1.13 4.8 -3.46 21.51 30.11 -4.86 3.43 -1.86 -2.61c-1.63,-2.31 -2.97,-3.85 -4.04,-4.58 -1.06,-0.79 -2.4,-1.28 -3.95,-1.55 -1.58,-0.25 -3.01,-0.12 -4.32,0.3 -1.27,0.42 -3.22,1.58 -5.8,3.4l-8.27 5.89 15.86 22.24c1.64,2.31 2.73,3.64 3.34,3.98 0.55,0.33 1.16,0.48 1.82,0.33 0.64,-0.09 2.07,-0.98 4.25,-2.52l10.33 -7.38c5.74,-4.1 9.75,-7.99 12.03,-11.66 2.25,-3.67 3.59,-7.81 4.07,-12.4 0.33,-3.59 0,-8.05 -1.12,-13.34l5.59 -1.61 7.65 26.95 -57.84 41.29 -2.95 -4.14 1.97 -1.4c2.28,-1.64 3.56,-2.8 3.92,-3.46 0.52,-1.06 0.7,-2.18 0.46,-3.49 -0.09,-0.85 -0.94,-2.37 -2.49,-4.56l-33.69 -47.22c-1.55,-2.16 -2.77,-3.43 -3.74,-3.85 -0.91,-0.43 -2.07,-0.48 -3.34,-0.12 -0.76,0.15 -2.8,1.43 -6.1,3.8l-2.92 -4.13zm77.93 -58.33l31.41 -29.74c5.98,-5.68 11.06,-9.29 15.31,-10.93 4.22,-1.67 8.27,-2.1 12.12,-1.34 3.89,0.82 7.29,2.76 10.21,5.86 3.01,3.16 4.92,6.78 5.65,10.75 0.73,3.98 0.25,8.08 -1.4,12.37 -1.64,4.28 -4.95,8.78 -9.84,13.55l34.63 4.56c2.89,0.42 4.68,0.57 5.47,0.57 1.85,-0.06 3.59,-0.36 5.16,-0.97 1.55,-0.58 3.07,-1.55 4.43,-2.89l1.13 -1.03 3.46 3.67 -13.94 13.19 -49.98 -8.02 -7.84 7.41 17.86 18.86c1.97,2.07 3.31,3.31 3.95,3.71 1.28,0.7 2.43,0.91 3.56,0.67 1.09,-0.27 2.64,-1.37 4.68,-3.31l1.58 -1.48 3.49 3.67 -23.27 21.99 -3.46 -3.64 2.06 -1.97c1.58,-1.49 2.52,-2.61 2.89,-3.28 0.34,-0.73 0.49,-1.55 0.4,-2.47 -0.03,-0.91 -0.36,-1.82 -0.91,-2.82 -0.27,-0.37 -1.61,-1.86 -4.07,-4.47l-37.89 -40.07c-1.7,-1.76 -3.1,-2.89 -4.16,-3.34 -1.06,-0.46 -2.07,-0.55 -3.04,-0.27 -0.95,0.21 -2.22,1.09 -3.71,2.55l-2.49 2.34 -3.46 -3.67zm20.26 -10.21l21.84 23.09 12.52 -11.87c4.25,-4.01 6.99,-7.08 8.2,-9.23 1.79,-3.04 2.49,-6.14 2.13,-9.36 -0.36,-3.19 -1.94,-6.26 -4.67,-9.15 -2.31,-2.46 -4.77,-4.07 -7.45,-4.8 -2.55,-0.69 -5.16,-0.64 -7.69,0.19 -2.58,0.82 -5.59,2.89 -9.08,6.2l-15.79 14.94zm118.64 -144.03l2.49 -3.56 24.91 9.72 -1.82 5.56c-7.96,-1.27 -15.35,-0.73 -22.15,1.64 -5.62,1.95 -10.18,5.32 -13.55,10.09 -2.07,2.91 -3.38,5.86 -4.01,8.93 -0.58,3.01 -0.46,5.71 0.37,7.96 0.85,2.36 2.1,4.1 3.8,5.32 1.52,1.09 3.37,1.7 5.41,1.82 2.09,0.15 4.34,-0.33 6.71,-1.37 2.37,-1.01 5.65,-3.16 9.75,-6.44l12.82 -10.27c1.58,-1.24 4.1,-2.91 7.54,-4.95 3.46,-2.09 6.47,-3.49 9.11,-4.07 2.65,-0.67 5.38,-0.69 8.14,-0.18 2.8,0.58 5.44,1.74 7.9,3.46 5.44,3.83 8.48,9.6 9.2,17.25 0.7,7.72 -1.63,15.32 -7.01,22.91 -2.73,3.92 -5.8,6.99 -9.11,9.29 -3.31,2.28 -7.69,4.17 -13.1,5.74l4.98 6.93 -2.46 3.46 -27.95 -12.91 2.31 -5.2c5.71,1.52 11.15,2.04 16.34,1.49 5.11,-0.51 9.66,-1.92 13.7,-4.13 4.01,-2.22 7.23,-5.08 9.69,-8.54 3.37,-4.77 4.89,-9.93 4.56,-15.49 -0.3,-4.65 -2.03,-8.11 -5.29,-10.42 -2.97,-2.1 -6.2,-2.73 -9.6,-1.97 -3.46,0.85 -7.96,3.49 -13.55,7.9l-12.24 9.84c-6.9,5.47 -12.94,8.54 -18.01,9.15 -5.11,0.64 -9.69,-0.52 -13.73,-3.34 -3.13,-2.22 -5.38,-5.2 -6.78,-8.93 -1.37,-3.71 -1.58,-8.14 -0.69,-13.22 0.88,-5.11 2.94,-9.87 6.16,-14.46 2.68,-3.8 5.93,-6.99 9.73,-9.51 2.67,-1.82 5.56,-3.12 8.75,-3.98l-3.31 -5.53zm36.27 -57.09l5.01 -8.75 74.07 12.27c3.67,0.67 6.35,0.7 7.96,0.12 1.63,-0.58 3.04,-1.85 4.13,-3.74l0.67 -1.19 4.4 2.52 -14.85 26.01 -4.4 -2.52c0.43,-0.85 0.82,-1.68 1.31,-2.49 0.94,-1.7 1.4,-2.91 1.37,-3.62 -0.09,-1.42 -0.64,-2.4 -1.64,-2.94 -0.73,-0.43 -2.83,-0.98 -6.23,-1.64l-16.99 -3.13 -15.06 26.37 12.58 14.73c1.3,1.52 2.25,2.49 2.89,2.83 0.7,0.39 1.42,0.54 2.13,0.48 0.76,-0.06 1.42,-0.33 2.07,-0.82 0.61,-0.48 1.3,-1.42 2.13,-2.82 0.51,-0.94 0.97,-1.7 1.37,-2.28l4.4 2.52 -12.52 21.88 -4.38 -2.52c1.16,-2 1.76,-3.61 1.89,-4.74 0.09,-1.09 -0.09,-2.25 -0.61,-3.4 -0.49,-1.19 -1.86,-3.13 -4.11,-5.86l-47.57 -57.27zm35.63 32.48l12.92 -22.54 -37.89 -6.75 24.97 29.29zm-4.68 -90.23l10.97 -23.27 73.49 -7.87 -43.47 -20.48c-2.62,-1.24 -4.59,-1.85 -5.96,-1.85 -1.37,-0.06 -2.61,0.3 -3.64,1.01 -1.06,0.76 -2.1,2.13 -3.01,4.13l-0.94 1.95 -4.56 -2.16 11.94 -25.37 4.58 2.16 -0.64 1.37c-1.03,2.22 -1.58,3.83 -1.58,4.77 -0.04,1.37 0.51,2.64 1.61,3.88 1.06,1.19 2.83,2.34 5.29,3.5l62.55 29.46 -3.13 6.6 -88.34 9.48 54.44 25.67c2.98,1.4 4.86,2.18 5.62,2.31 0.94,0.15 1.92,0.03 2.95,-0.3 0.97,-0.33 1.82,-0.91 2.52,-1.7 0.64,-0.8 1.64,-2.55 3.01,-5.29l4.59 2.16 -12.13 25.76 -4.58 -2.16 0.64 -1.37c1.24,-2.68 1.82,-4.56 1.76,-5.71 -0.09,-1.19 -0.61,-2.31 -1.61,-3.4 -0.97,-1.09 -2.94,-2.34 -5.89,-3.71l-48.3 -22.75c-3.07,-1.43 -4.92,-2.22 -5.66,-2.4 -1.4,-0.27 -2.58,-0.03 -3.58,0.61 -0.98,0.69 -2.13,2.4 -3.44,5.16l-0.91 1.97 -4.59 -2.16zm49.65 -134.01c2.13,-7.38 5.86,-13.52 11.12,-18.44 5.71,-5.34 12.06,-8.9 19.21,-10.57 7.07,-1.67 14.67,-1.4 22.66,0.95 12.4,3.58 21.42,10.38 27.01,20.42 5.59,9.99 6.65,20.99 3.19,32.96 -3.88,13.39 -11.69,22.6 -23.36,27.68 -9.51,4.19 -19.63,4.71 -30.32,1.61 -7.93,-2.31 -14.52,-6.16 -19.78,-11.6 -5.26,-5.38 -8.75,-11.94 -10.54,-19.6 -1.73,-7.69 -1.45,-15.53 0.82,-23.39zm6.29 1.86c-1.76,6.07 -1.89,11.64 -0.4,16.8 1.52,5.13 4.56,9.78 9.14,13.97 4.59,4.17 10.82,7.38 18.69,9.69 7.51,2.16 14.25,2.73 20.23,1.64 5.95,-1.09 10.96,-3.37 15.01,-6.9 4.01,-3.55 6.83,-8.05 8.39,-13.46 1.55,-5.37 1.58,-10.54 0.09,-15.49 -1.52,-4.92 -4.8,-9.63 -9.84,-14.01 -5.07,-4.4 -11.12,-7.65 -18.26,-9.72 -7.26,-2.1 -14.28,-2.65 -21.08,-1.67 -5.84,0.79 -10.54,2.76 -14.13,5.89 -3.58,3.13 -6.2,7.54 -7.83,13.25zm-805.09 -1388.06c319.64,0 608.98,129.58 818.45,339.02 209.45,209.47 339.02,498.82 339.02,818.45 0,319.64 -129.57,609.01 -339.02,818.45 -209.47,209.44 -498.82,339.02 -818.45,339.02 -319.63,0 -609.01,-129.58 -818.44,-339.02 -209.45,-209.45 -339.02,-498.82 -339.02,-818.45 0,-319.64 129.57,-608.98 339.02,-818.45 209.44,-209.44 498.82,-339.02 818.44,-339.02zm792.2 365.27c-202.73,-202.76 -482.83,-328.17 -792.2,-328.17 -309.36,0 -589.5,125.41 -792.2,328.17 -202.76,202.73 -328.17,482.83 -328.17,792.2 0,309.37 125.41,589.5 328.17,792.2 202.7,202.76 482.84,328.17 792.2,328.17 309.37,0 589.47,-125.41 792.2,-328.17 202.76,-202.7 328.17,-482.83 328.17,-792.2 0,-309.37 -125.41,-589.47 -328.17,-792.2z"/>
 </g>
</svg>
